<svg width="8" height="15" viewBox="0 0 8 15" fill="none" xmlns="http://www.w3.org/2000/svg">
    <path d="M0.292893 12.8398C-0.0976309 13.2303 -0.097631 13.8635 0.292893 14.254C0.683417 14.6445 1.31658 14.6445 1.70711 14.254L0.292893 12.8398ZM7 7.54688L7.70711 8.25398C8.09763 7.86346 8.09763 7.23029 7.70711 6.83977L7 7.54688ZM1.70711 0.839768C1.31658 0.449243 0.683418 0.449243 0.292895 0.839768C-0.0976299 1.23029 -0.09763 1.86346 0.292894 2.25398L1.70711 0.839768ZM1.70711 14.254L7.70711 8.25398L6.29289 6.83977L0.292893 12.8398L1.70711 14.254ZM7.70711 6.83977L1.70711 0.839768L0.292894 2.25398L6.29289 8.25398L7.70711 6.83977Z" fill="#2AA549"/>
</svg>
