<svg width="8" height="15" viewBox="0 0 8 15" fill="none" xmlns="http://www.w3.org/2000/svg">
    <path d="M7.70711 2.25398C8.09763 1.86346 8.09763 1.23029 7.70711 0.839768C7.31658 0.449244 6.68342 0.449244 6.29289 0.839768L7.70711 2.25398ZM1 7.54688L0.292893 6.83977C-0.0976311 7.23029 -0.0976311 7.86346 0.292893 8.25398L1 7.54688ZM6.29289 14.254C6.68342 14.6445 7.31658 14.6445 7.70711 14.254C8.09763 13.8635 8.09763 13.2303 7.70711 12.8398L6.29289 14.254ZM6.29289 0.839768L0.292893 6.83977L1.70711 8.25398L7.70711 2.25398L6.29289 0.839768ZM0.292893 8.25398L6.29289 14.254L7.70711 12.8398L1.70711 6.83977L0.292893 8.25398Z" fill="#2AA549"/>
</svg>
