<svg width="30" height="30" viewBox="0 0 30 30" fill="none" xmlns="http://www.w3.org/2000/svg">
    <circle cx="15" cy="15" r="15" fill="#E3F9E8"/>
    <path d="M9.71399 14.858C9.20088 14.3962 8.41051 14.4377 7.94866 14.9509C7.48681 15.464 7.52837 16.2543 8.04149 16.7162L9.71399 14.858ZM14.4327 20.7871L13.5965 21.7162C13.8603 21.9537 14.2126 22.0678 14.5656 22.03C14.9185 21.9923 15.2388 21.8063 15.4465 21.5184L14.4327 20.7871ZM23.0215 11.0184C23.4254 10.4586 23.2989 9.67728 22.7391 9.27338C22.1792 8.86947 21.3979 8.99591 20.994 9.55577L23.0215 11.0184ZM8.04149 16.7162L13.5965 21.7162L15.269 19.858L9.71399 14.858L8.04149 16.7162ZM15.4465 21.5184L23.0215 11.0184L20.994 9.55577L13.419 20.0558L15.4465 21.5184Z" fill="#2AA549"/>
</svg>
