<svg width="78" height="77" viewBox="0 0 78 77" fill="none" xmlns="http://www.w3.org/2000/svg">
    <g clip-path="url(#clip0)">
        <path d="M39.4136 0C18.1852 0 0.913712 17.2715 0.913712 38.4999C0.913712 59.7284 18.1852 76.9998 39.4136 76.9998C60.6421 76.9998 77.9136 59.7284 77.9136 38.4999C77.9136 17.2715 60.6422 0 39.4136 0ZM39.4136 73.6521C20.0297 73.6521 4.26148 57.8838 4.26148 38.4999C4.26148 19.116 20.0297 3.34777 39.4136 3.34777C58.7975 3.34777 74.5658 19.116 74.5658 38.4999C74.5658 57.8838 58.7975 73.6521 39.4136 73.6521Z" fill="#2AA549"/>
        <path d="M39.4136 13.3911C38.4896 13.3911 37.7397 14.1411 37.7397 15.0651V35.152C37.7397 36.076 38.4896 36.826 39.4136 36.826C40.3376 36.826 41.0876 36.076 41.0876 35.152V15.0651C41.0876 14.1411 40.3376 13.3911 39.4136 13.3911Z" fill="#2AA549"/>
        <path d="M76.2397 36.8262H72.892C71.968 36.8262 71.218 37.5761 71.218 38.5001C71.218 39.4241 71.968 40.1739 72.892 40.1739H76.2397C77.1637 40.1739 77.9137 39.424 77.9137 38.5C77.9137 37.576 77.1637 36.8262 76.2397 36.8262Z" fill="#2AA549"/>
        <path d="M39.4136 0C38.4896 0 37.7397 0.749965 37.7397 1.67396V5.02174C37.7397 5.94573 38.4896 6.6957 39.4136 6.6957C40.3376 6.6957 41.0876 5.94573 41.0876 5.02174V1.67396C41.0876 0.749965 40.3376 0 39.4136 0Z" fill="#2AA549"/>
        <path d="M5.93543 36.8262H2.58766C1.66366 36.8262 0.913696 37.576 0.913696 38.5C0.913696 39.424 1.66366 40.1739 2.58766 40.1739H5.93543C6.85943 40.1739 7.6094 39.424 7.6094 38.5C7.6094 37.576 6.85943 36.8262 5.93543 36.8262Z" fill="#2AA549"/>
        <path d="M39.4136 70.3042C38.4896 70.3042 37.7396 71.0542 37.7396 71.9782V75.3259C37.7396 76.2499 38.4896 76.9999 39.4136 76.9999C40.3376 76.9999 41.0875 76.2499 41.0875 75.3259V71.9782C41.0875 71.0542 40.3376 70.3042 39.4136 70.3042Z" fill="#2AA549"/>
        <path d="M39.4136 33.478C36.6449 33.478 34.3919 35.7311 34.3919 38.4998C34.3919 41.2685 36.6449 43.5215 39.4136 43.5215C42.1823 43.5215 44.4354 41.2685 44.4354 38.4998C44.4354 35.7312 42.1823 33.478 39.4136 33.478ZM39.4136 40.1737C38.4896 40.1737 37.7397 39.4205 37.7397 38.4998C37.7397 37.5791 38.4896 36.8258 39.4136 36.8258C40.3376 36.8258 41.0876 37.5792 41.0876 38.4998C41.0876 39.4205 40.3376 40.1737 39.4136 40.1737Z" fill="#2AA549"/>
        <path d="M53.9867 50.7094L43.9432 40.6659C43.2904 40.0131 42.2291 40.0131 41.5763 40.6659C40.9234 41.3187 40.9234 42.38 41.5763 43.0329L51.6197 53.0763C51.9479 53.401 52.3763 53.5652 52.8049 53.5652C53.2334 53.5652 53.6618 53.4012 53.9867 53.0763C54.6395 52.4235 54.6395 51.3622 53.9867 50.7094Z" fill="#2AA549"/>
    </g>
    <defs>
        <clipPath id="clip0">
            <rect width="77" height="77" fill="white" transform="translate(0.913696)"/>
        </clipPath>
    </defs>
</svg>
