<svg width="59" height="61" viewBox="0 0 59 61" fill="none" xmlns="http://www.w3.org/2000/svg">
    <path d="M57.2293 41.6284C58.4732 40.06 59.0697 38.3787 58.9935 36.6472C58.9174 34.74 58.0543 33.2469 57.3435 32.331C58.1685 30.2984 58.4858 27.0989 55.7316 24.6146C53.7136 22.7952 50.2867 21.9797 45.5398 22.2055C42.2017 22.3561 39.4094 22.9709 39.2952 22.996H39.2825C38.6479 23.1089 37.9752 23.2469 37.2898 23.3975C37.239 22.5945 37.3786 20.5995 38.8763 16.1077C40.6532 10.7626 40.5517 6.67227 38.5463 3.93701C36.4394 1.06374 33.076 0.837891 32.086 0.837891C31.1341 0.837891 30.2583 1.22685 29.6364 1.94203C28.2275 3.5606 28.3925 6.5468 28.5702 7.92697C26.8949 12.3686 22.1987 23.2595 18.2261 26.2833C18.1499 26.3335 18.0864 26.3962 18.023 26.459C16.8553 27.676 16.0684 28.9935 15.5353 30.1478C14.7865 29.7463 13.9361 29.5204 13.0222 29.5204H5.27997C2.36076 29.5204 0 31.8667 0 34.74V55.129C0 58.0148 2.37345 60.3485 5.27997 60.3485H13.0222C14.1518 60.3485 15.2053 59.9972 16.0684 59.395L19.0511 59.7463C19.508 59.809 27.631 60.8253 35.9698 60.6622C37.4802 60.7752 38.9017 60.8379 40.2217 60.8379C42.4936 60.8379 44.4736 60.6622 46.1236 60.3109C50.0074 59.4953 52.6601 57.8642 54.0055 55.4677C55.0336 53.6359 55.0336 51.8166 54.8686 50.6622C57.3943 48.4038 57.8385 45.9069 57.7497 44.1503C57.6989 43.134 57.4705 42.2683 57.2293 41.6284ZM5.27997 56.9608C4.2519 56.9608 3.4269 56.1327 3.4269 55.129V34.7275C3.4269 33.7112 4.26459 32.8956 5.27997 32.8956H13.0222C14.0503 32.8956 14.8753 33.7237 14.8753 34.7275V55.1164C14.8753 56.1327 14.0376 56.9483 13.0222 56.9483H5.27997V56.9608ZM53.9801 40.1603C53.447 40.7124 53.3455 41.5531 53.7516 42.2055C53.7516 42.2181 54.272 43.0964 54.3355 44.3009C54.4243 45.9445 53.6247 47.4 51.9493 48.6422C51.3528 49.0938 51.1117 49.8718 51.3655 50.5744C51.3655 50.5869 51.9113 52.2432 51.0228 53.8115C50.1724 55.3172 48.2813 56.3962 45.4128 56.9985C43.1155 57.4878 39.9933 57.5756 36.1602 57.2745C36.1094 57.2745 36.046 57.2745 35.9825 57.2745C27.8214 57.4502 19.5714 56.3962 19.4826 56.3837H19.4699L18.188 56.2331C18.2641 55.8818 18.3022 55.5054 18.3022 55.129V34.7275C18.3022 34.188 18.2134 33.661 18.0611 33.1716C18.2895 32.331 18.9241 30.4615 20.4218 28.868C26.1206 24.4013 31.6925 9.33224 31.9337 8.6798C32.0352 8.41631 32.0606 8.12773 32.0098 7.83914C31.7941 6.43388 31.8702 4.71493 32.1748 4.2005C32.8475 4.21305 34.6625 4.40125 35.754 5.89435C37.0486 7.66349 36.9979 10.8253 35.6017 15.0161C33.4694 21.4025 33.2917 24.7651 34.9798 26.2457C35.8175 26.9859 36.9344 27.0236 37.7467 26.735C38.521 26.5593 39.2571 26.4088 39.9552 26.2959C40.0059 26.2833 40.0694 26.2708 40.1202 26.2582C44.0167 25.4176 50.9974 24.9031 53.4216 27.0863C55.4778 28.9433 54.0182 31.4025 53.8532 31.666C53.3836 32.3686 53.5232 33.2846 54.1578 33.8492C54.1705 33.8617 55.5032 35.1039 55.5666 36.7726C55.6174 37.8893 55.0843 39.0311 53.9801 40.1603Z" fill="#2AA549"/>
</svg>
