<svg width="90" height="91" viewBox="0 0 90 91" fill="none" xmlns="http://www.w3.org/2000/svg">
    <path d="M75.4055 73.6042H14.5947C11.3701 73.6007 8.2787 72.3182 5.99862 70.0381C3.71854 67.758 2.43604 64.6666 2.4325 61.442C2.4325 61.1195 2.56063 60.8101 2.78872 60.5821C3.0168 60.354 3.32615 60.2258 3.64871 60.2258H37.4474C37.7699 60.2258 38.0793 60.354 38.3074 60.5821C38.5354 60.8101 38.6636 61.1195 38.6636 61.442C38.6636 61.7646 38.5354 62.074 38.3074 62.302C38.0793 62.5301 37.7699 62.6583 37.4474 62.6583H4.94033C5.23983 65.0083 6.38509 67.1688 8.16196 68.7357C9.93882 70.3026 12.2256 71.1686 14.5947 71.1718H75.4055C77.7745 71.1686 80.0613 70.3026 81.8382 68.7357C83.6151 67.1688 84.7603 65.0083 85.0598 62.6583H52.5528C52.2302 62.6583 51.9209 62.5301 51.6928 62.302C51.4647 62.074 51.3366 61.7646 51.3366 61.442C51.3366 61.1195 51.4647 60.8101 51.6928 60.5821C51.9209 60.354 52.2302 60.2258 52.5528 60.2258H86.3514C86.674 60.2258 86.9833 60.354 87.2114 60.5821C87.4395 60.8101 87.5676 61.1195 87.5676 61.442C87.5641 64.6666 86.2816 67.758 84.0015 70.0381C81.7214 72.3182 78.63 73.6007 75.4055 73.6042Z" fill="#2AA549"/>
    <path d="M79.0541 62.6585H52.5528C52.2302 62.6585 51.9209 62.5303 51.6928 62.3022C51.4647 62.0742 51.3365 61.7648 51.3365 61.4422C51.3365 61.1197 51.4647 60.8103 51.6928 60.5822C51.9209 60.3542 52.2302 60.226 52.5528 60.226H77.8379V23.7395C77.8379 22.7718 77.4535 21.8438 76.7692 21.1595C76.085 20.4753 75.1569 20.0909 74.1893 20.0909H15.8109C14.8432 20.0909 13.9151 20.4753 13.2309 21.1595C12.5466 21.8438 12.1622 22.7718 12.1622 23.7395V60.226H37.4474C37.7699 60.226 38.0793 60.3542 38.3074 60.5822C38.5354 60.8103 38.6636 61.1197 38.6636 61.4422C38.6636 61.7648 38.5354 62.0742 38.3074 62.3022C38.0793 62.5303 37.7699 62.6585 37.4474 62.6585H10.946C10.6235 62.6585 10.3141 62.5303 10.086 62.3022C9.85793 62.0742 9.7298 61.7648 9.7298 61.4422V23.7395C9.73173 22.1273 10.373 20.5817 11.513 19.4417C12.653 18.3017 14.1987 17.6604 15.8109 17.6584H74.1893C75.8015 17.6604 77.3471 18.3017 78.4871 19.4417C79.6271 20.5817 80.2684 22.1273 80.2703 23.7395V61.4422C80.2703 61.7648 80.1422 62.0742 79.9141 62.3022C79.686 62.5303 79.3767 62.6585 79.0541 62.6585Z" fill="#2AA549"/>
    <path d="M50.4974 66.5856H39.5028C39.2808 66.5856 39.063 66.5249 38.873 66.41C38.6831 66.2951 38.5282 66.1304 38.4252 65.9337L36.3649 62.0066C36.2908 61.865 36.2453 61.7103 36.231 61.5512C36.2167 61.3921 36.2338 61.2318 36.2815 61.0793C36.3292 60.9268 36.4064 60.7853 36.5088 60.6626C36.6111 60.54 36.7367 60.4388 36.8782 60.3647C37.0197 60.2905 37.1744 60.245 37.3335 60.2307C37.4926 60.2164 37.6529 60.2336 37.8054 60.2812C37.9579 60.3289 38.0995 60.4061 38.2221 60.5085C38.3447 60.6109 38.446 60.7364 38.5201 60.8779L40.2337 64.1532H49.7567L51.4703 60.8779C51.62 60.5921 51.8771 60.3775 52.185 60.2812C52.4929 60.185 52.8264 60.215 53.1122 60.3647C53.398 60.5143 53.6126 60.7714 53.7089 61.0793C53.8052 61.3872 53.7751 61.7208 53.6255 62.0066L51.5701 65.9337C51.4674 66.1297 51.3133 66.2939 51.1243 66.4088C50.9353 66.5236 50.7185 66.5848 50.4974 66.5856Z" fill="#2AA549"/>
    <path d="M45.0001 54.1449C42.2338 54.1449 39.5296 53.3246 37.2296 51.7877C34.9295 50.2509 33.1368 48.0665 32.0782 45.5108C31.0196 42.9551 30.7426 40.1429 31.2823 37.4297C31.822 34.7166 33.1541 32.2245 35.1101 30.2684C37.0662 28.3124 39.5583 26.9803 42.2714 26.4406C44.9845 25.901 47.7968 26.1779 50.3525 27.2365C52.9081 28.2951 55.0925 30.0878 56.6294 32.3879C58.1662 34.688 58.9865 37.3921 58.9865 40.1584C58.9824 43.8665 57.5074 47.4216 54.8854 50.0437C52.2633 52.6658 48.7082 54.1407 45.0001 54.1449ZM45.0001 28.6043C42.7149 28.6043 40.481 29.2819 38.581 30.5515C36.6809 31.8211 35.2 33.6256 34.3255 35.7368C33.451 37.8481 33.2222 40.1712 33.668 42.4125C34.1138 44.6537 35.2142 46.7125 36.8301 48.3283C38.446 49.9442 40.5047 51.0446 42.746 51.4904C44.9872 51.9362 47.3104 51.7074 49.4216 50.8329C51.5328 49.9584 53.3373 48.4775 54.6069 46.5775C55.8765 44.6774 56.5541 42.4435 56.5541 40.1584C56.5506 37.0951 55.3321 34.1584 53.1661 31.9923C51.0001 29.8263 48.0633 28.6079 45.0001 28.6043Z" fill="#2AA549"/>
    <path d="M40.4513 44.3416H42.4036V46.0151C42.4036 46.0965 42.4296 46.1632 42.482 46.2153C42.5343 46.2677 42.6011 46.2939 42.6825 46.2939H44.1379C44.2134 46.2939 44.2788 46.2677 44.334 46.2153C44.3892 46.1632 44.4167 46.0965 44.4167 46.0151V44.3416H48.8179C48.8991 44.3416 48.9659 44.3157 49.0183 44.2632C49.0708 44.2108 49.0968 44.1441 49.0968 44.0627V42.9471C49.0968 42.8662 49.0708 42.799 49.0183 42.7469C48.9661 42.6945 48.8991 42.6683 48.8179 42.6683H44.4166V41.6398H47.3797C48.5417 41.6398 49.49 41.2858 50.2252 40.5767C50.9601 39.8683 51.3278 38.9532 51.3278 37.8314C51.3278 36.7104 50.9601 35.7953 50.2252 35.0861C49.4902 34.3777 48.5417 34.0229 47.3797 34.0229H42.6824C42.6009 34.0229 42.5343 34.0491 42.4819 34.1013C42.4296 34.1537 42.4034 34.2208 42.4034 34.3018V39.7838H40.4513C40.3699 39.7838 40.3032 39.8113 40.2508 39.8665C40.1986 39.9217 40.1724 39.987 40.1724 40.0626V41.361C40.1724 41.4424 40.1984 41.5091 40.2508 41.5615C40.3032 41.6139 40.3698 41.6398 40.4513 41.6398H42.4036V42.6683H40.4513C40.3699 42.6683 40.3032 42.6945 40.2508 42.7469C40.1986 42.799 40.1724 42.866 40.1724 42.9471V44.0627C40.1724 44.1441 40.1984 44.2108 40.2508 44.2632C40.3032 44.3157 40.3699 44.3416 40.4513 44.3416ZM44.4166 35.8795H47.2054C47.8212 35.8795 48.3179 36.0595 48.6957 36.4197C49.0733 36.78 49.2621 37.2508 49.2621 37.8315C49.2621 38.4126 49.0733 38.8835 48.6957 39.2433C48.3179 39.6039 47.8212 39.7839 47.2054 39.7839H44.4166V35.8795Z" fill="#2AA549"/>
</svg>
