<svg width="81" height="81" viewBox="0 0 81 81" fill="none" xmlns="http://www.w3.org/2000/svg">
    <g clip-path="url(#clip0)">
        <path d="M78.8007 15.8674C77.7641 14.6421 76.3126 13.8936 74.7131 13.76L18.3762 9.05599C16.7766 8.9224 15.2213 9.41974 13.9958 10.4561C12.7753 11.4885 12.028 12.9327 11.8902 14.5244L10.7567 25.1581H6.23098C2.91787 25.1581 0.222412 27.8536 0.222412 31.1667V66.4325C0.222412 69.7456 2.91787 72.4411 6.23098 72.4411H62.764C66.0773 72.4411 68.7728 69.7456 68.7728 66.4325V60.7117L70.7789 60.8792C70.9481 60.8933 71.1163 60.9003 71.2832 60.9003C74.372 60.9003 77.0051 58.5239 77.2666 55.3914L80.2012 20.248C80.3346 18.6485 79.8373 17.0928 78.8007 15.8674ZM6.23098 28.2831H62.764C64.354 28.2831 65.6478 29.5767 65.6478 31.1667V34.3801H3.3474V31.1667C3.3474 29.5767 4.64099 28.2831 6.23098 28.2831ZM3.3474 37.5051H65.6478V43.9877H3.3474V37.5051ZM62.764 69.3161H6.23098C4.64099 69.3161 3.3474 68.0225 3.3474 66.4325V47.1127H65.6478V66.4325C65.6478 68.0225 64.354 69.3161 62.764 69.3161ZM77.087 19.9878L74.1524 55.1313C74.0201 56.7158 72.6231 57.8978 71.0388 57.765L68.7728 57.5758V31.1667C68.7728 27.8536 66.0773 25.1581 62.764 25.1581H13.8995L14.9994 14.8394C15.0006 14.8275 15.0017 14.8158 15.0027 14.8038C15.135 13.2193 16.5313 12.0374 18.1162 12.1702L74.4532 16.8742C75.2209 16.9383 75.9176 17.2975 76.4149 17.8856C76.9123 18.4738 77.151 19.2202 77.087 19.9878Z" fill="#2AA549"/>
        <path d="M59.1086 51.7583H44.0708C43.2079 51.7583 42.5083 52.4578 42.5083 53.3208V63.1316C42.5083 63.9946 43.2079 64.6941 44.0708 64.6941H59.1086C59.9716 64.6941 60.6711 63.9946 60.6711 63.1316V53.3208C60.6711 52.4578 59.9716 51.7583 59.1086 51.7583ZM57.5461 61.5691H45.6333V54.8833H57.5461V61.5691Z" fill="#2AA549"/>
    </g>
    <defs>
        <clipPath id="clip0">
            <rect width="80" height="80" fill="white" transform="translate(0.222412 0.737793)"/>
        </clipPath>
    </defs>
</svg>
