<svg width="71" height="71" viewBox="0 0 71 71" fill="none" xmlns="http://www.w3.org/2000/svg">
    <path d="M69.6875 62.1412H65.2664V57.9658C65.2664 57.2875 64.7166 56.7376 64.0383 56.7376H62.652V33.4045H64.0383C64.7166 33.4045 65.2664 32.8546 65.2664 32.1764V28.0011H67.2311C67.9094 28.0011 68.4592 27.4512 68.4592 26.773V21.8608H69.6874C70.3656 21.8608 70.9155 21.3109 70.9155 20.6326V14.4922C70.9155 13.9775 70.5947 13.5175 70.1118 13.3397L36.0943 0.813446C35.8203 0.712575 35.5194 0.712575 35.2454 0.813446L1.22776 13.3397C0.744859 13.5175 0.424072 13.9777 0.424072 14.4922V20.6326C0.424072 21.3109 0.973946 21.8608 1.6522 21.8608H2.88033V26.773C2.88033 27.4512 3.4302 28.0011 4.10845 28.0011H6.07313V32.1764C6.07313 32.8546 6.62301 33.4045 7.30126 33.4045H8.68757V56.7376H7.30126C6.62301 56.7376 6.07313 57.2875 6.07313 57.9658V62.1412H1.6522C0.973946 62.1412 0.424072 62.6911 0.424072 63.3694V69.5097C0.424072 70.1879 0.973946 70.7378 1.6522 70.7378H69.6875C70.3658 70.7378 70.9156 70.1879 70.9156 69.5097V63.3694C70.9156 62.6911 70.3658 62.1412 69.6875 62.1412ZM62.8102 59.1939V62.1412H50.5297V59.1939H62.8102ZM43.0381 56.7376H41.6518V33.4045H43.0381C43.7164 33.4045 44.2663 32.8546 44.2663 32.1764V28.0011H48.0735V32.1764C48.0735 32.8546 48.6233 33.4045 49.3016 33.4045H50.6879V56.7376H49.3016C48.6233 56.7376 48.0735 57.2875 48.0735 57.9658V62.1412H44.2663V57.9658C44.2663 57.2875 43.7164 56.7376 43.0381 56.7376ZM22.0381 56.7376H20.6518V33.4045H22.0381C22.7164 33.4045 23.2663 32.8546 23.2663 32.1764V28.0011H27.0735V32.1764C27.0735 32.8546 27.6233 33.4045 28.3016 33.4045H29.6879V56.7376H28.3016C27.6233 56.7376 27.0735 57.2875 27.0735 57.9658V62.1412H23.2663V57.9658C23.2663 57.2875 22.7164 56.7376 22.0381 56.7376ZM29.5295 30.9483V28.0011H41.8102V30.9483H29.5295ZM39.1957 33.4045V56.7376H32.144V33.4045H39.1957ZM29.5295 59.1939H41.8102V62.1412H29.5295V59.1939ZM53.1443 56.7376V33.4045H60.1959V56.7376H53.1443ZM62.8102 30.9483H50.5297V28.0011H62.8102V30.9483ZM5.33658 25.5448V21.8608H9.54906C10.2273 21.8608 10.7772 21.3109 10.7772 20.6326C10.7772 19.9544 10.2273 19.4045 9.54906 19.4045H4.10845H2.88033V15.3487L35.6699 3.27478L68.4594 15.3487V19.4045H67.2313H8.06646C7.38821 19.4045 6.83833 19.9544 6.83833 20.6326C6.83833 21.3109 7.38821 21.8608 8.06646 21.8608H66.0031V25.5448H5.33658ZM8.52955 30.9483V28.0011H20.81V30.9483H8.52955ZM18.1954 33.4045V56.7376H11.1438V33.4045H18.1954ZM8.52955 59.1939H20.81V62.1412H8.52955V59.1939ZM68.4594 68.2815H2.88033V64.5975H68.4594V68.2815Z" fill="#2AA549"/>
</svg>
