<svg width="30" height="30" viewBox="0 0 30 30" fill="none" xmlns="http://www.w3.org/2000/svg">
    <circle cx="14.9999" cy="15" r="15" fill="#F9E3E3"/>
    <path d="M20.6236 18.8077L16.8159 14.9999L20.6236 11.1922C21.1251 10.6908 21.1252 9.87769 20.6237 9.37615C20.1221 8.87462 19.309 8.87468 18.8076 9.37615L14.9998 13.1839L11.1921 9.37615C10.6907 8.87462 9.87747 8.87462 9.376 9.37615C8.87453 9.87769 8.87453 10.6908 9.37606 11.1922L13.1838 14.9999L9.37606 18.8077C8.87453 19.3092 8.87446 20.1223 9.376 20.6237C9.87766 21.1253 10.6907 21.1251 11.1921 20.6237L14.9998 16.816L18.8076 20.6237C19.309 21.1252 20.1222 21.1253 20.6237 20.6237C21.1252 20.1222 21.1252 19.3091 20.6236 18.8077Z" fill="#CE4545"/>
</svg>
