<svg width="69" height="70" viewBox="0 0 69 70" fill="none" xmlns="http://www.w3.org/2000/svg">
    <g clip-path="url(#clip0)">
        <path d="M20.1806 31.516C20.1806 30.4876 19.3439 29.6509 18.3153 29.6509H15.7083C14.6798 29.6509 13.843 30.4876 13.843 31.516V33.6492C13.843 34.6778 14.6798 35.5145 15.7083 35.5145H18.3153C19.3439 35.5145 20.1806 34.6778 20.1806 33.6492V31.516ZM18.1585 33.4924H15.8651V31.6728H18.1585V33.4924Z" fill="#2AA549"/>
        <path d="M11.4528 31.516C11.4528 30.4876 10.6161 29.6509 9.58751 29.6509H6.98065C5.95209 29.6509 5.11536 30.4876 5.11536 31.516V33.6492C5.11536 34.6778 5.95209 35.5145 6.98065 35.5145H9.58751C10.6161 35.5145 11.4528 34.6778 11.4528 33.6492V31.516ZM9.43073 33.4924H7.13743V31.6728H9.43073V33.4924Z" fill="#2AA549"/>
        <path d="M20.1806 39.1942C20.1806 38.1656 19.3439 37.3289 18.3153 37.3289H15.7083C14.6798 37.3289 13.843 38.1656 13.843 39.1942V41.3273C13.843 42.3557 14.6798 43.1925 15.7083 43.1925H18.3153C19.3439 43.1925 20.1806 42.3557 20.1806 41.3273V39.1942ZM18.1585 41.1705H15.8651V39.3509H18.1585V41.1705Z" fill="#2AA549"/>
        <path d="M11.4528 39.1942C11.4528 38.1656 10.6161 37.3289 9.58751 37.3289H6.98065C5.95209 37.3289 5.11536 38.1656 5.11536 39.1942V41.3273C5.11536 42.3557 5.95209 43.1925 6.98065 43.1925H9.58751C10.6161 43.1925 11.4528 42.3557 11.4528 41.3273V39.1942ZM9.43073 41.1705H7.13743V39.3509H9.43073V41.1705Z" fill="#2AA549"/>
        <path d="M18.3155 45.0068H15.7085C14.6799 45.0068 13.8432 45.8436 13.8432 46.8721V49.0053C13.8432 50.0338 14.6799 50.8706 15.7085 50.8706H18.3155C19.344 50.8706 20.1808 50.0338 20.1808 49.0053V46.8721C20.1806 45.8436 19.3439 45.0068 18.3155 45.0068ZM18.1586 48.8484H15.8651V47.0288H18.1586V48.8484Z" fill="#2AA549"/>
        <path d="M9.58751 45.0068H6.98065C5.95209 45.0068 5.11536 45.8436 5.11536 46.8721V49.0053C5.11536 50.0338 5.95209 50.8706 6.98065 50.8706H9.58751C10.6161 50.8706 11.4528 50.0338 11.4528 49.0053V46.8721C11.4528 45.8436 10.6161 45.0068 9.58751 45.0068ZM9.43073 48.8484H7.13743V47.0288H9.43073V48.8484Z" fill="#2AA549"/>
        <path d="M24.4363 50.8703H27.0431C28.0717 50.8703 28.9084 50.0336 28.9084 49.005V46.8719C28.9084 45.8433 28.0717 45.0066 27.0431 45.0066H24.4363C23.4077 45.0066 22.571 45.8433 22.571 46.8719V49.005C22.571 50.0336 23.4077 50.8703 24.4363 50.8703ZM24.5931 47.0288H26.8864V48.8484H24.5931V47.0288Z" fill="#2AA549"/>
        <path d="M67.7949 61.0335L66.1735 58.1984L67.2173 47.8524C67.7461 42.6107 65.6566 37.4544 61.6279 34.0595L53.1237 26.8935L44.2522 11.3815C43.6898 10.3981 42.778 9.69255 41.685 9.3949C40.5918 9.09738 39.4482 9.24297 38.4649 9.80551L32.9526 12.9581V6.50994C32.9526 3.38233 30.4081 0.837891 27.2807 0.837891H6.74328C3.61567 0.837891 1.07123 3.38233 1.07123 6.50994V49.4997C1.07123 52.4318 3.30737 54.8512 6.16375 55.1424V66.8017C6.16375 67.2717 6.40087 67.7026 6.79814 67.954C7.19555 68.2055 7.68651 68.2355 8.11128 68.0343L10.3254 66.9861L13.184 68.2248C13.3565 68.2995 13.5411 68.3368 13.7258 68.3368C13.9175 68.3368 14.1091 68.2967 14.2874 68.2162L17.0193 66.9823L19.8634 68.2217C20.2247 68.3792 20.6363 68.373 20.9924 68.2042L23.5563 66.9896L25.938 68.0585C26.3618 68.2485 26.8475 68.2115 27.2375 67.959C27.6274 67.7065 27.8602 67.2786 27.8602 66.8141V55.1424C30.7166 54.8512 32.9527 52.4318 32.9527 49.4997V46.1482L34.1993 48.3278C34.3342 48.5637 34.4898 48.7833 34.6626 48.9853L34.2293 51.1527C34.0442 52.0786 34.2309 53.0208 34.7547 53.8064C35.2784 54.5919 36.0767 55.1264 37.0024 55.3113C37.2356 55.358 37.4699 55.381 37.7024 55.381C38.393 55.381 39.0684 55.1779 39.656 54.7861C39.6663 54.7792 39.676 54.772 39.6861 54.7651C40.1872 55.5328 40.9834 56.1072 41.9513 56.3006C42.1812 56.3466 42.4118 56.3689 42.6403 56.3689C43.2266 56.3689 43.7982 56.2208 44.3061 55.9493C45.5822 59.7171 47.8462 63.1296 50.8934 65.7641L51.604 66.3787L53.2911 69.3285C53.4778 69.6548 53.8189 69.8378 54.1697 69.8378C54.3399 69.8378 54.5123 69.7947 54.6707 69.7042C55.1553 69.427 55.3236 68.8093 55.0464 68.3246L53.2737 65.2249C53.217 65.1256 53.1439 65.0368 53.0574 64.962L52.2161 64.2346C47.9949 60.5849 45.4247 55.2949 45.1646 49.7207L44.8126 42.1828C44.7903 41.7051 44.6531 41.233 44.4154 40.8174L40.9603 34.776C40.706 34.3315 40.6401 33.8147 40.7748 33.3206C40.9094 32.8265 41.2282 32.4144 41.6727 32.1603C42.1173 31.9061 42.6339 31.8399 43.1282 31.9748C43.6222 32.1094 44.0343 32.4282 44.2885 32.8726L46.2191 36.2484C46.4964 36.7332 47.1141 36.9013 47.5986 36.6243C48.0833 36.347 48.2516 35.7293 47.9744 35.2447L46.0439 31.8689C45.5215 30.9556 44.6748 30.3003 43.6596 30.0238C42.6444 29.7475 41.5822 29.8828 40.6689 30.4052C38.7836 31.4835 38.1269 33.8947 39.2052 35.7801L42.6604 41.8214C42.7397 41.9601 42.7855 42.1177 42.7929 42.2772L42.9609 45.8736L38.9828 48.1487C38.4683 48.443 37.87 48.5194 37.298 48.3635C36.726 48.2078 36.249 47.8385 35.9547 47.324L28.002 33.4189C27.7247 32.9341 27.1069 32.7657 26.6224 33.0432C26.1378 33.3203 25.9695 33.938 26.2467 34.4228L28.0954 37.6553C27.7958 37.4497 27.4335 37.3289 27.0434 37.3289H24.4366C23.408 37.3289 22.5713 38.1656 22.5713 39.1942V41.3273C22.5713 42.3558 23.408 43.1925 24.4366 43.1925H27.0434C28.072 43.1925 28.9087 42.3558 28.9087 41.3273V39.1942C28.9087 39.1509 28.9051 39.1084 28.9022 39.0658L30.9308 42.6128V49.4999C30.9308 51.5125 29.2934 53.1499 27.2809 53.1499H6.74328C4.73064 53.1499 3.0933 51.5125 3.0933 49.4999V6.50994C3.0933 4.4973 4.73064 2.85996 6.74328 2.85996H27.2807C29.2932 2.85996 30.9305 4.4973 30.9305 6.50994V14.1145L28.9084 15.271V10.1072C28.9084 9.20968 28.1782 8.47944 27.2807 8.47944H6.74328C5.84561 8.47944 5.11537 9.20968 5.11537 10.1073V14.4222C5.11537 14.9805 5.56805 15.4332 6.12641 15.4332C6.68477 15.4332 7.13745 14.9805 7.13745 14.4222V10.5015H26.8864V16.4274L22.3308 19.0329C20.4856 20.0882 19.7337 22.3293 20.4841 24.2534H7.13745V18.7308C7.13745 18.1724 6.68477 17.7198 6.12641 17.7198C5.56805 17.7198 5.11537 18.1724 5.11537 18.7308V24.6475C5.11537 25.5452 5.84561 26.2754 6.74328 26.2754H21.5869L24.1075 30.6826C24.3848 31.1672 25.0023 31.3355 25.4871 31.0583C25.9718 30.7811 26.1399 30.1635 25.8628 29.6787L22.5101 23.8166C21.9025 22.7543 22.2725 21.3958 23.3348 20.7883L39.4689 11.5609C39.9835 11.2667 40.5817 11.1902 41.1537 11.3462C41.7257 11.5019 42.2028 11.8711 42.497 12.3857L55.9414 35.8933C56.2357 36.4079 56.312 37.0063 56.1563 37.5783C56.0004 38.1503 55.6313 38.6272 55.1168 38.9215L51.3192 41.0933L50.1132 38.9847C49.8359 38.4999 49.2181 38.3318 48.7336 38.609C48.249 38.8862 48.0808 39.5038 48.3579 39.9886L51.0855 44.7576C51.2722 45.0839 51.6132 45.2669 51.964 45.2669C52.1342 45.2669 52.3066 45.2239 52.465 45.1333C52.9497 44.8561 53.1179 44.2384 52.8407 43.7537L52.3231 42.8486L56.1207 40.6768C57.1041 40.1144 57.8097 39.2025 58.1073 38.1095C58.4049 37.0165 58.2591 35.8729 57.6967 34.8895L56.0429 31.9979L60.3248 35.6061C63.8427 38.5704 65.6673 43.0728 65.2056 47.6497L64.1293 58.318C64.1081 58.5276 64.153 58.7386 64.2576 58.9215L66.0399 62.0378C66.2266 62.3642 66.5677 62.5471 66.9184 62.5471C67.0887 62.5471 67.2611 62.5041 67.4195 62.4135C67.9041 62.1359 68.0722 61.5183 67.7949 61.0335ZM43.1446 49.8152C43.2092 51.1969 43.404 52.5625 43.7185 53.8955C43.3664 54.2522 42.8522 54.4186 42.3477 54.3179C41.5299 54.1546 40.9976 53.3562 41.161 52.5385L41.9071 48.8056L43.0664 48.1425L43.1446 49.8152ZM37.8876 50.4655C38.47 50.4655 39.0459 50.3424 39.5855 50.1042L39.1781 52.1421C39.099 52.5381 38.8702 52.8797 38.5342 53.1039C38.198 53.3282 37.7948 53.4079 37.3987 53.3286C37.0027 53.2495 36.6611 53.0207 36.4369 52.6846C36.2127 52.3486 36.1329 51.9454 36.2122 51.5492L36.4772 50.2234C36.5722 50.2565 36.6683 50.2877 36.7665 50.3145C37.1371 50.4155 37.5136 50.4655 37.8876 50.4655ZM26.8864 41.1704H24.5931V39.3508H26.8864V41.1704ZM25.838 65.7972L24.1068 65.0204C23.7423 64.857 23.3263 64.8612 22.9648 65.0322L20.3971 66.2486L17.5593 65.0119C17.207 64.8582 16.8038 64.8609 16.453 65.0193L13.7204 66.2536L10.8559 65.0123C10.6827 64.9372 10.4981 64.8997 10.3134 64.8997C10.1139 64.8997 9.91443 64.9435 9.72974 65.0309L8.18569 65.7619V55.1718H25.838V65.7972Z" fill="#2AA549"/>
        <path d="M39.8761 19.1204C40.0228 18.5816 39.7051 18.0259 39.1663 17.8793C37.1755 17.3372 35.0926 17.6026 33.3014 18.627C31.5104 19.6514 30.2255 21.3119 29.6833 23.3029C29.5366 23.8417 29.8544 24.3973 30.3932 24.544C30.4821 24.5683 30.5715 24.5799 30.6594 24.5799C31.1041 24.5799 31.5118 24.2841 31.6343 23.8343C32.0345 22.3645 32.9832 21.1386 34.3053 20.3825C35.6276 19.6262 37.1651 19.4302 38.635 19.8304C39.1735 19.977 39.7295 19.6591 39.8761 19.1204Z" fill="#2AA549"/>
        <path d="M37.5721 23.7334C38.1105 23.8798 38.6664 23.5623 38.8134 23.0236C38.9602 22.4849 38.6423 21.9291 38.1036 21.7823C37.1546 21.5239 36.1622 21.6498 35.3095 22.1373C34.457 22.6247 33.8453 23.416 33.5867 24.3655C33.4401 24.9043 33.7578 25.4599 34.2966 25.6066C34.3856 25.6309 34.475 25.6425 34.5628 25.6425C35.0076 25.6425 35.4152 25.3467 35.5378 24.8969C35.6544 24.4686 35.9299 24.112 36.3134 23.8926C36.6969 23.6734 37.144 23.6167 37.5721 23.7334Z" fill="#2AA549"/>
        <path d="M37.1772 27.44C37.3639 27.7664 37.705 27.9493 38.0557 27.9493C38.226 27.9493 38.3984 27.9063 38.5568 27.8157C39.0414 27.5386 39.2097 26.9209 38.9325 26.4361L38.5967 25.8489C38.3194 25.3642 37.7017 25.1959 37.2171 25.4732C36.7325 25.7504 36.5643 26.368 36.8414 26.8528L37.1772 27.44Z" fill="#2AA549"/>
    </g>
    <defs>
        <clipPath id="clip0">
            <rect width="69" height="69" fill="white" transform="translate(0 0.837891)"/>
        </clipPath>
    </defs>
</svg>
