<svg width="32" height="31" viewBox="0 0 32 31" fill="none" xmlns="http://www.w3.org/2000/svg">
    <g clip-path="url(#clip0)">
        <path d="M27.0324 7.27028L20.5509 1.02026C20.4293 0.903076 20.2648 0.837158 20.0926 0.837158H6.48147C5.05163 0.837158 3.88892 1.95835 3.88892 3.33718V28.3372C3.88892 29.716 5.05163 30.8372 6.48153 30.8372H24.6297C26.0595 30.8372 27.2222 29.716 27.2222 28.3371V7.71214C27.2222 7.54614 27.1539 7.38747 27.0324 7.27028ZM20.7407 2.97097L25.0094 7.08718H22.037C21.3224 7.08718 20.7407 6.52626 20.7407 5.8372V2.97097ZM25.926 28.3371C25.926 29.0262 25.3443 29.5871 24.6297 29.5871H6.48153C5.76695 29.5871 5.18525 29.0262 5.18525 28.3371V3.33718C5.18525 2.64812 5.76695 2.0872 6.48153 2.0872H19.4445V5.8372C19.4445 7.21597 20.6072 8.33716 22.0371 8.33716H25.926V28.3371Z" fill="#E2574C"/>
        <path d="M27.0324 7.27028L20.5509 1.02026C20.4293 0.903076 20.2648 0.837158 20.0926 0.837158H6.48147C5.05163 0.837158 3.88892 1.95835 3.88892 3.33718V28.3372C3.88892 29.716 5.05163 30.8372 6.48153 30.8372H24.6297C26.0595 30.8372 27.2222 29.716 27.2222 28.3371V7.71214C27.2222 7.54614 27.1539 7.38747 27.0324 7.27028ZM20.7407 2.97097L25.0094 7.08718H22.037C21.3224 7.08718 20.7407 6.52626 20.7407 5.8372V2.97097ZM25.926 28.3371C25.926 29.0262 25.3443 29.5871 24.6297 29.5871H6.48153C5.76695 29.5871 5.18525 29.0262 5.18525 28.3371V3.33718C5.18525 2.64812 5.76695 2.0872 6.48153 2.0872H19.4445V5.8372C19.4445 7.21597 20.6072 8.33716 22.0371 8.33716H25.926V28.3371Z" fill="#0E0E0E"/>
        <path d="M18.8603 19.1849C18.2602 18.7296 17.6899 18.2615 17.3102 17.8953C16.8165 17.4192 16.3765 16.9578 15.9943 16.5183C16.5905 14.7416 16.8519 13.8255 16.8519 13.3372C16.8519 11.2626 16.0747 10.8372 14.9075 10.8372C14.0207 10.8372 12.9631 11.2815 12.9631 13.397C12.9631 14.3296 13.4929 15.4618 14.5429 16.7777C14.2859 17.5339 13.984 18.4062 13.6448 19.3894C13.4814 19.8612 13.3042 20.2982 13.1169 20.7023C12.9643 20.7676 12.8162 20.8341 12.6732 20.9031C12.1579 21.1515 11.6687 21.3749 11.2148 21.5824C9.14502 22.5272 7.77783 23.1523 7.77783 24.3864C7.77783 25.2824 8.78742 25.8371 9.72228 25.8371C10.9274 25.8371 12.7472 24.285 14.0764 21.6703C15.4562 21.1454 17.1716 20.7565 18.5254 20.513C19.6103 21.3175 20.8085 22.0871 21.3889 22.0871C22.996 22.0871 23.3334 21.1911 23.3334 20.4398C23.3334 18.9621 21.5826 18.9621 20.7408 18.9621C20.4794 18.9622 19.7781 19.0366 18.8603 19.1849ZM9.72228 24.5872C9.35198 24.5872 9.10133 24.4187 9.07411 24.3864C9.07411 23.9432 10.4445 23.317 11.7699 22.7116C11.8541 22.6731 11.9396 22.6346 12.0263 22.595C11.0528 23.9561 10.09 24.5872 9.72228 24.5872ZM14.2593 13.397C14.2593 12.0872 14.6809 12.0872 14.9075 12.0872C15.3658 12.0872 15.5557 12.0872 15.5557 13.3372C15.5557 13.6008 15.3734 14.26 15.0398 15.2891C14.5308 14.5335 14.2593 13.8859 14.2593 13.397ZM14.7562 20.1145C14.7967 20.0059 14.836 19.896 14.874 19.7849C15.1145 19.0891 15.331 18.4641 15.524 17.9014C15.793 18.187 16.0829 18.4794 16.3937 18.7791C16.5153 18.8963 16.8165 19.1599 17.2179 19.4901C16.4189 19.658 15.5689 19.8661 14.7562 20.1145ZM22.0371 20.4398C22.0371 20.7206 22.0371 20.8372 21.4358 20.8409C21.2592 20.8042 20.8509 20.5723 20.3471 20.2415C20.53 20.222 20.6648 20.2122 20.7408 20.2122C21.6985 20.2122 21.97 20.3025 22.0371 20.4398Z" fill="#E2574C"/>
        <path d="M18.8603 19.1849C18.2602 18.7296 17.6899 18.2615 17.3102 17.8953C16.8165 17.4192 16.3765 16.9578 15.9943 16.5183C16.5905 14.7416 16.8519 13.8255 16.8519 13.3372C16.8519 11.2626 16.0747 10.8372 14.9075 10.8372C14.0207 10.8372 12.9631 11.2815 12.9631 13.397C12.9631 14.3296 13.4929 15.4618 14.5429 16.7777C14.2859 17.5339 13.984 18.4062 13.6448 19.3894C13.4814 19.8612 13.3042 20.2982 13.1169 20.7023C12.9643 20.7676 12.8162 20.8341 12.6732 20.9031C12.1579 21.1515 11.6687 21.3749 11.2148 21.5824C9.14502 22.5272 7.77783 23.1523 7.77783 24.3864C7.77783 25.2824 8.78742 25.8371 9.72228 25.8371C10.9274 25.8371 12.7472 24.285 14.0764 21.6703C15.4562 21.1454 17.1716 20.7565 18.5254 20.513C19.6103 21.3175 20.8085 22.0871 21.3889 22.0871C22.996 22.0871 23.3334 21.1911 23.3334 20.4398C23.3334 18.9621 21.5826 18.9621 20.7408 18.9621C20.4794 18.9622 19.7781 19.0366 18.8603 19.1849ZM9.72228 24.5872C9.35198 24.5872 9.10133 24.4187 9.07411 24.3864C9.07411 23.9432 10.4445 23.317 11.7699 22.7116C11.8541 22.6731 11.9396 22.6346 12.0263 22.595C11.0528 23.9561 10.09 24.5872 9.72228 24.5872ZM14.2593 13.397C14.2593 12.0872 14.6809 12.0872 14.9075 12.0872C15.3658 12.0872 15.5557 12.0872 15.5557 13.3372C15.5557 13.6008 15.3734 14.26 15.0398 15.2891C14.5308 14.5335 14.2593 13.8859 14.2593 13.397ZM14.7562 20.1145C14.7967 20.0059 14.836 19.896 14.874 19.7849C15.1145 19.0891 15.331 18.4641 15.524 17.9014C15.793 18.187 16.0829 18.4794 16.3937 18.7791C16.5153 18.8963 16.8165 19.1599 17.2179 19.4901C16.4189 19.658 15.5689 19.8661 14.7562 20.1145ZM22.0371 20.4398C22.0371 20.7206 22.0371 20.8372 21.4358 20.8409C21.2592 20.8042 20.8509 20.5723 20.3471 20.2415C20.53 20.222 20.6648 20.2122 20.7408 20.2122C21.6985 20.2122 21.97 20.3025 22.0371 20.4398Z" fill="#0E0E0E"/>
    </g>
    <defs>
        <clipPath id="clip0">
            <rect width="31.1111" height="30" fill="white" transform="translate(0 0.837158)"/>
        </clipPath>
    </defs>
</svg>
