<svg width="17" height="17" viewBox="0 0 17 17" fill="none" xmlns="http://www.w3.org/2000/svg">
    <g clip-path="url(#clip0)">
        <path d="M13.4362 10.5305C13.0882 10.1681 12.6684 9.97435 12.2235 9.97435C11.7822 9.97435 11.3588 10.1645 10.9964 10.5269L9.86262 11.6571C9.76934 11.6069 9.67605 11.5602 9.58635 11.5136C9.45718 11.449 9.33519 11.388 9.23114 11.3234C8.16911 10.6489 7.20394 9.76984 6.27825 8.63245C5.82975 8.06556 5.52836 7.58836 5.30949 7.10398C5.60371 6.83488 5.87639 6.55502 6.1419 6.28592C6.24237 6.18546 6.34283 6.08141 6.44329 5.98095C7.19677 5.22747 7.19677 4.25155 6.44329 3.49807L5.46378 2.51856C5.35255 2.40733 5.23774 2.29252 5.1301 2.1777C4.91482 1.95525 4.68878 1.72562 4.45556 1.51034C4.10753 1.1659 3.69132 0.98291 3.25359 0.98291C2.81586 0.98291 2.39248 1.1659 2.03368 1.51034C2.03009 1.51393 2.03009 1.51393 2.02651 1.51752L0.806597 2.74819C0.347338 3.20745 0.085416 3.76717 0.0280086 4.41659C-0.0581026 5.46428 0.250463 6.44021 0.487268 7.07887C1.06852 8.64681 1.93681 10.0999 3.23206 11.6571C4.80359 13.5336 6.69445 15.0154 8.85441 16.0595C9.67964 16.4506 10.7811 16.9135 12.0118 16.9924C12.0872 16.996 12.1661 16.9996 12.2379 16.9996C13.0667 16.9996 13.7627 16.7018 14.3081 16.1098C14.3117 16.1026 14.3189 16.099 14.3225 16.0918C14.509 15.8658 14.7243 15.6613 14.9504 15.4424C15.1046 15.2953 15.2625 15.141 15.4168 14.9796C15.772 14.61 15.9586 14.1795 15.9586 13.7381C15.9586 13.2932 15.7684 12.8663 15.406 12.5075L13.4362 10.5305ZM14.7207 14.3086C14.7171 14.3086 14.7171 14.3122 14.7207 14.3086C14.5808 14.4593 14.4373 14.5957 14.283 14.7464C14.0498 14.9688 13.813 15.202 13.5905 15.4639C13.2281 15.8514 12.8012 16.0344 12.2414 16.0344C12.1876 16.0344 12.1302 16.0344 12.0764 16.0308C11.0108 15.9627 10.0205 15.5465 9.27779 15.1913C7.247 14.2082 5.46378 12.8124 3.98195 11.0436C2.75845 9.56891 1.94039 8.20549 1.39861 6.7416C1.06493 5.84819 0.94294 5.15213 0.99676 4.49553C1.03264 4.07574 1.1941 3.7277 1.4919 3.4299L2.7154 2.20641C2.89121 2.04136 3.07778 1.95166 3.26077 1.95166C3.48681 1.95166 3.66979 2.088 3.78461 2.20282C3.7882 2.20641 3.79179 2.20999 3.79537 2.21358C4.01424 2.4181 4.22234 2.62979 4.44121 2.85583C4.55243 2.97064 4.66725 3.08546 4.78206 3.20386L5.76158 4.18338C6.1419 4.5637 6.1419 4.91532 5.76158 5.29565C5.65753 5.3997 5.55707 5.50375 5.45301 5.60421C5.15162 5.91278 4.86459 6.19981 4.55243 6.47967C4.54526 6.48685 4.53808 6.49044 4.53449 6.49761C4.22593 6.80618 4.28334 7.10757 4.34792 7.31208C4.35151 7.32285 4.3551 7.33361 4.35868 7.34437C4.61343 7.9615 4.97223 8.54276 5.5176 9.23523L5.52119 9.23882C6.51146 10.4587 7.55556 11.4095 8.7073 12.1379C8.85441 12.2312 9.0051 12.3065 9.14862 12.3783C9.27779 12.4429 9.39978 12.5039 9.50383 12.5685C9.51818 12.5756 9.53253 12.5864 9.54688 12.5936C9.66888 12.6546 9.78369 12.6833 9.90209 12.6833C10.1999 12.6833 10.3865 12.4967 10.4475 12.4357L11.6745 11.2086C11.7965 11.0866 11.9903 10.9395 12.2163 10.9395C12.4388 10.9395 12.6218 11.0794 12.733 11.2014C12.7366 11.205 12.7366 11.205 12.7402 11.2086L14.7171 13.1856C15.0867 13.5516 15.0867 13.9283 14.7207 14.3086Z" fill="#2AA549"/>
        <path d="M9.18722 4.04389C10.1273 4.20176 10.9812 4.64667 11.6629 5.32838C12.3446 6.0101 12.7859 6.86403 12.9474 7.80408C12.9869 8.04088 13.1914 8.20593 13.4246 8.20593C13.4533 8.20593 13.4784 8.20234 13.5071 8.19876C13.7726 8.1557 13.9484 7.90454 13.9054 7.63903C13.7116 6.50165 13.1734 5.46473 12.3518 4.64308C11.5302 3.82144 10.4932 3.28324 9.35585 3.08949C9.09034 3.04644 8.84277 3.22225 8.79613 3.48417C8.74948 3.74609 8.92171 4.00084 9.18722 4.04389Z" fill="#2AA549"/>
        <path d="M16.9803 7.49906C16.6609 5.62614 15.7783 3.92186 14.422 2.5656C13.0658 1.20935 11.3615 0.326714 9.48858 0.00738457C9.22666 -0.039259 8.97909 0.140139 8.93245 0.402061C8.88939 0.66757 9.0652 0.91514 9.33071 0.961784C11.0027 1.24523 12.5276 2.03817 13.7403 3.24732C14.9531 4.46005 15.7424 5.98494 16.0259 7.65693C16.0653 7.89373 16.2698 8.05878 16.5031 8.05878C16.5318 8.05878 16.5569 8.05519 16.5856 8.05161C16.8475 8.01214 17.0269 7.76098 16.9803 7.49906Z" fill="#2AA549"/>
    </g>
    <defs>
        <clipPath id="clip0">
            <rect width="17" height="17" fill="white"/>
        </clipPath>
    </defs>
</svg>
