<svg width="89" height="87" viewBox="0 0 89 87" fill="none" xmlns="http://www.w3.org/2000/svg">
    <path d="M34.5569 84.9751C28.258 84.9751 22.6421 83.3913 17.7093 80.2237C12.8523 76.9807 9.01985 72.3047 6.21191 66.1958C3.40397 60.0868 2 52.8466 2 44.4751C2 36.1036 3.40397 28.8634 6.21191 22.7544C9.01985 16.6455 12.8523 12.0072 17.7093 8.83962C22.6421 5.5966 28.258 3.9751 34.5569 3.9751C40.7799 3.9751 46.3199 5.5966 51.1769 8.83962C56.1097 12.0072 59.9802 16.6455 62.7881 22.7544C65.596 28.8634 67 36.1036 67 44.4751C67 52.8466 65.596 60.0868 62.7881 66.1958C59.9802 72.3047 56.1097 76.9807 51.1769 80.2237C46.3199 83.3913 40.7799 84.9751 34.5569 84.9751ZM34.5569 74.9067C40.9317 74.9067 46.0163 72.3047 49.8109 67.1008C53.6813 61.8969 55.6165 54.355 55.6165 44.4751C55.6165 34.5952 53.6813 27.0533 49.8109 21.8494C46.0163 16.6455 40.9317 14.0435 34.5569 14.0435C28.1062 14.0435 22.9457 16.6455 19.0753 21.8494C15.2808 27.0533 13.3835 34.5952 13.3835 44.4751C13.3835 54.355 15.2808 61.8969 19.0753 67.1008C22.9457 72.3047 28.1062 74.9067 34.5569 74.9067Z" stroke="#2AA549" stroke-width="3"/>
    <g clip-path="url(#clip0)">
        <path d="M85.3373 3.68853C80.4535 -1.19529 72.5482 -1.19602 67.6637 3.68853C62.7798 8.5723 62.779 16.4777 67.6637 21.3622C72.5475 26.246 80.4528 26.2467 85.3373 21.3622C90.2211 16.4784 90.2219 8.57304 85.3373 3.68853ZM76.5004 22.9695C70.7415 22.9695 66.0562 18.2843 66.0562 12.5253C66.0562 6.7664 70.7415 2.08119 76.5004 2.08119C82.2594 2.08119 86.9446 6.76645 86.9446 12.5254C86.9446 18.2843 82.2594 22.9695 76.5004 22.9695Z" fill="#2AA549"/>
        <path d="M78.0642 6.28467H74.4144C73.8475 6.28467 73.3879 6.74424 73.3879 7.31116V11.4986H72.3289C71.7619 11.4986 71.3024 11.9582 71.3024 12.5251C71.3024 13.092 71.7619 13.5516 72.3289 13.5516H73.3879V14.627H72.3289C71.7619 14.627 71.3024 15.0866 71.3024 15.6535C71.3024 16.2204 71.7619 16.68 72.3289 16.68H73.3879V17.7391C73.3879 18.306 73.8475 18.7656 74.4144 18.7656C74.9813 18.7656 75.4409 18.306 75.4409 17.7391V16.68H77.5428C78.1097 16.68 78.5693 16.2204 78.5693 15.6535C78.5693 15.0866 78.1097 14.627 77.5428 14.627H75.4409V13.5516H78.0642C80.0677 13.5516 81.6976 11.9216 81.6976 9.91817C81.6976 7.91464 80.0677 6.28467 78.0642 6.28467ZM78.0642 11.4986H75.4409V8.33761H78.0642C78.9356 8.33761 79.6446 9.04658 79.6446 9.91807C79.6446 10.7896 78.9357 11.4986 78.0642 11.4986Z" fill="#2AA549"/>
    </g>
    <defs>
        <clipPath id="clip0">
            <rect width="25" height="25" fill="white" transform="translate(64 0.0249023)"/>
        </clipPath>
    </defs>
</svg>
