<svg width="282" height="283" viewBox="0 0 282 283" fill="none" xmlns="http://www.w3.org/2000/svg">
    <path d="M219.89 60.7071C219.097 49.1969 209.818 39.9184 198.308 39.125C191.783 38.6769 185.555 40.8778 180.789 45.3274C176.088 49.7154 173.393 55.9183 173.393 62.346C173.393 65.3826 175.855 67.8441 178.891 67.8441C181.927 67.8441 184.389 65.3826 184.389 62.346C184.389 58.9048 185.775 55.7154 188.292 53.366C190.807 51.0189 194.094 49.8572 197.552 50.0958C203.615 50.5137 208.503 55.4009 208.921 61.4636C209.343 67.5868 205.325 72.9979 199.369 74.3307C194.543 75.4105 191.172 79.6044 191.172 84.529V97.738C191.172 100.775 193.634 103.236 196.67 103.236C199.707 103.236 202.168 100.775 202.168 97.738V84.9683C213.246 82.2918 220.679 72.1545 219.89 60.7071Z" fill="#F3F3F3"/>
    <path d="M196.67 113.988C198.116 113.988 199.535 114.576 200.557 115.599C201.58 116.622 202.168 118.04 202.168 119.486C202.168 120.938 201.58 122.351 200.557 123.379C199.535 124.401 198.116 124.984 196.67 124.984C195.224 124.984 193.806 124.401 192.783 123.379C191.761 122.356 191.172 120.938 191.172 119.486C191.172 118.04 191.761 116.622 192.783 115.599C193.806 114.576 195.224 113.988 196.67 113.988Z" fill="#F3F3F3"/>
    <path fill-rule="evenodd" clip-rule="evenodd" d="M188.174 0.546875H202.089C246.152 0.546875 282 36.3953 282 80.4588C282 93.2231 279.079 105.423 273.316 116.719C268.243 126.665 261.013 135.568 252.311 142.616V174.425C252.311 176.649 250.971 178.653 248.917 179.504C248.237 179.787 247.522 179.923 246.814 179.923C245.383 179.923 243.978 179.365 242.926 178.314L222.37 157.77C215.773 159.497 208.966 160.37 202.088 160.37H188.173C144.11 160.37 108.262 124.522 108.262 80.4588C108.262 36.3953 144.11 0.546875 188.174 0.546875ZM241.314 139.935C241.314 138.208 242.126 136.582 243.504 135.543C260.981 122.381 271.004 102.303 271.004 80.4588C271.004 42.4585 240.089 11.543 202.089 11.543H188.174C150.173 11.543 119.258 42.4585 119.258 80.4588C119.258 118.459 150.173 149.375 188.174 149.375H202.089C208.995 149.375 215.815 148.355 222.359 146.344C222.89 146.181 223.434 146.101 223.973 146.101C225.409 146.101 226.813 146.665 227.86 147.71L241.314 161.157V139.935Z" fill="#F3F3F3"/>
    <path d="M185.234 181.433C185.234 178.396 187.696 175.935 190.732 175.935C193.768 175.935 196.23 178.396 196.23 181.433V219.369C196.23 240.59 178.966 257.855 157.744 257.855H103.877L103.863 276.553C103.862 278.776 102.522 280.779 100.467 281.629C99.7881 281.91 99.0739 282.047 98.3663 282.047C96.9352 282.047 95.5294 281.488 94.4775 280.436L71.8966 257.855H38.9863C17.765 257.855 0.5 240.59 0.5 219.369V134.699C0.5 113.478 17.765 96.2129 38.9863 96.2129H94.5166C97.5526 96.2129 100.015 98.6744 100.015 101.711C100.015 104.748 97.5526 107.209 94.5166 107.209H38.9863C23.8282 107.209 11.4961 119.541 11.4961 134.699V219.369C11.4961 234.527 23.8282 246.859 38.9863 246.859H74.7121C76.9608 246.859 78.9049 248.212 79.7544 250.163L92.8771 263.285L92.8848 252.354C92.887 249.319 95.3474 246.859 98.3828 246.859H157.744C172.902 246.859 185.234 234.527 185.234 219.369V181.433Z" fill="#F3F3F3"/>
    <path d="M151.696 170.986H35.6875C32.6515 170.986 30.1895 173.448 30.1895 176.484C30.1895 179.521 32.6515 181.982 35.6875 181.982H151.696C154.733 181.982 157.194 179.521 157.194 176.484C157.194 173.448 154.732 170.986 151.696 170.986Z" fill="#F3F3F3"/>
    <path d="M151.696 201.775C153.142 201.775 154.561 202.364 155.583 203.386C156.605 204.409 157.194 205.827 157.194 207.273C157.194 208.725 156.606 210.138 155.583 211.161C154.561 212.183 153.142 212.771 151.696 212.771C150.25 212.771 148.832 212.183 147.809 211.161C146.786 210.138 146.198 208.719 146.198 207.273C146.198 205.827 146.786 204.409 147.809 203.386C148.832 202.364 150.25 201.775 151.696 201.775Z" fill="#F3F3F3"/>
    <path d="M130.071 201.775H35.6875C32.6515 201.775 30.1895 204.237 30.1895 207.273C30.1895 210.31 32.6515 212.771 35.6875 212.771H130.071C133.107 212.771 135.569 210.31 135.569 207.273C135.569 204.237 133.107 201.775 130.071 201.775Z" fill="#F3F3F3"/>
    <path d="M35.6875 140.197H115.959C118.995 140.197 121.457 142.659 121.457 145.695C121.457 148.732 118.996 151.193 115.959 151.193H35.6875C32.6515 151.193 30.1895 148.732 30.1895 145.695C30.1895 142.659 32.6515 140.197 35.6875 140.197Z" fill="#F3F3F3"/>
</svg>
