<svg width="63" height="64" viewBox="0 0 63 64" fill="none" xmlns="http://www.w3.org/2000/svg">
    <g clip-path="url(#clip0)">
        <path d="M57.3884 11.7166C48.7203 9.34155 40.0014 5.64338 32.174 1.022C31.7582 0.776521 31.2423 0.776521 30.8266 1.022C22.7735 5.77615 14.5257 9.27425 5.61156 11.7166C5.0357 11.8742 4.63654 12.3977 4.63654 12.9948V26.5356C4.63654 40.4796 11.0693 49.7096 16.4659 54.997C22.2756 60.6898 29.0432 63.8379 31.5003 63.8379C33.9572 63.8379 40.7248 60.6898 46.5345 54.997C51.931 49.7097 58.3634 40.4797 58.3634 26.5356V12.9947C58.3634 12.3977 57.9642 11.8742 57.3884 11.7166ZM55.713 26.5355C55.713 39.5591 49.7131 48.1717 44.6795 53.1037C38.9663 58.7017 32.8579 61.1873 31.5003 61.1873C30.1428 61.1873 24.034 58.7017 18.3207 53.1037C13.2872 48.1716 7.28708 39.5591 7.28708 26.5355V14.0007C15.8115 11.5804 23.7502 8.20263 31.5006 3.69876C39.0574 8.08315 47.3922 11.6289 55.713 14.0002V26.5355Z" fill="#2AA549"/>
        <g clip-path="url(#clip1)">
            <path d="M38.75 28.6504H37.0608V24.7959C37.0608 22.062 34.7897 19.8379 31.9983 19.8379C29.2068 19.8379 26.9358 22.062 26.9358 24.7959V28.6504H25.25C23.6992 28.6504 22.4375 29.9121 22.4375 31.4629V41.0254C22.4375 42.5762 23.6992 43.8379 25.25 43.8379H38.75C40.3008 43.8379 41.5625 42.5762 41.5625 41.0254V31.4629C41.5625 29.9121 40.3008 28.6504 38.75 28.6504ZM28.8108 24.7959C28.8108 23.0959 30.2407 21.7129 31.9983 21.7129C33.7558 21.7129 35.1858 23.0959 35.1858 24.7959V28.6504H28.8108V24.7959ZM39.6875 41.0254C39.6875 41.5423 39.2669 41.9629 38.75 41.9629H25.25C24.7331 41.9629 24.3125 41.5423 24.3125 41.0254V31.4629C24.3125 30.946 24.7331 30.5254 25.25 30.5254H38.75C39.2669 30.5254 39.6875 30.946 39.6875 31.4629V41.0254Z" fill="#2AA549"/>
            <path d="M32 33.2441C31.0421 33.2441 30.2656 34.0206 30.2656 34.9785C30.2656 35.5901 30.5825 36.1274 31.0608 36.4362V38.4941C31.0608 39.0119 31.4805 39.4316 31.9983 39.4316C32.516 39.4316 32.9358 39.0119 32.9358 38.4941V36.4384C33.416 36.13 33.7344 35.5916 33.7344 34.9785C33.7344 34.0206 32.9579 33.2441 32 33.2441Z" fill="#2AA549"/>
        </g>
    </g>
    <defs>
        <clipPath id="clip0">
            <rect width="63" height="63" fill="white" transform="translate(0 0.837891)"/>
        </clipPath>
        <clipPath id="clip1">
            <rect width="24" height="24" fill="white" transform="translate(20 19.8379)"/>
        </clipPath>
    </defs>
</svg>
