<svg width="56" height="75" viewBox="0 0 56 75" fill="none" xmlns="http://www.w3.org/2000/svg">
    <path d="M23.0469 43.9185H44.5572C45.4065 43.9185 46.0938 44.6058 46.0938 45.455C46.0938 46.3043 45.4065 46.9915 44.5572 46.9915H23.0469C22.1976 46.9915 21.5104 46.3043 21.5104 45.455C21.5104 44.6058 22.1976 43.9185 23.0469 43.9185Z" fill="#2AA549"/>
    <path d="M10.7553 19.3351H29.1928C30.042 19.3351 30.7293 18.6479 30.7293 17.7986C30.7293 16.9494 30.042 16.2621 29.1928 16.2621H10.7553C9.90598 16.2621 9.21875 16.9494 9.21875 17.7986C9.21875 18.6479 9.90598 19.3351 10.7553 19.3351Z" fill="#2AA549"/>
    <path d="M10.7553 34.6998H44.5572C45.4065 34.6998 46.0938 35.387 46.0939 36.2363C46.0939 37.0856 45.4067 37.7728 44.5574 37.7728H10.7553C9.90598 37.7728 9.21875 37.0856 9.21875 36.2363C9.21875 35.387 9.90598 34.6998 10.7553 34.6998Z" fill="#2AA549"/>
    <path d="M9.21875 27.0174C9.21875 27.8667 9.90598 28.5539 10.7553 28.5539H44.5574C45.4067 28.5539 46.0939 27.8667 46.0939 27.0174C46.0939 26.1681 45.4067 25.4809 44.5574 25.4809H10.7553C9.90598 25.481 9.21875 26.1683 9.21875 27.0174Z" fill="#2AA549"/>
    <path fill-rule="evenodd" clip-rule="evenodd" d="M24.9524 62.1431C26.0809 61.3808 28.9286 58.8752 31.1883 56.6515C31.7945 56.0587 32.7668 56.0617 33.3611 56.6695C33.9552 57.2741 33.9492 58.2464 33.3431 58.8421C26.654 65.429 25.0966 65.429 24.5834 65.429C22.6748 65.429 21.9906 63.2384 21.2823 60.8916C20.211 63.0658 18.9777 65.429 16.901 65.429C15.8326 65.429 14.5542 64.7254 13.3509 63.654C12.7778 64.2242 12.2076 64.7239 11.6764 65.1215C11.4003 65.3285 11.0762 65.429 10.7551 65.429C10.29 65.429 9.82776 65.2174 9.5247 64.8138C9.01752 64.1356 9.15566 63.1723 9.83381 62.6637C10.32 62.2977 10.8152 61.8564 11.3013 61.3703C10.08 59.6853 9.21875 57.7648 9.21875 56.2103C9.21875 52.7037 12.0156 50.0644 13.8281 50.0644C15.6107 50.0644 18.4375 51.3157 18.4375 54.6737C18.4375 56.6304 17.0782 59.1617 15.3855 61.3478C16.0127 61.9329 16.5828 62.3216 16.916 62.3561C17.2491 62.1218 18.1556 60.2844 18.6142 59.3549L18.6399 59.3028C19.5573 57.4408 20.1637 56.2103 21.5104 56.2103C23.0822 56.2103 23.5728 57.8366 24.1948 59.8989L24.1992 59.9135C24.3823 60.5271 24.6854 61.5384 24.9524 62.1431ZM12.2916 56.2103C12.2916 56.9966 12.7358 57.9838 13.36 58.9351C14.5364 57.3071 15.3646 55.6535 15.3646 54.6739C15.3646 53.2108 14.0832 53.1374 13.8281 53.1374C13.6661 53.2394 12.2916 54.3363 12.2916 56.2103Z" fill="#2AA549"/>
    <path fill-rule="evenodd" clip-rule="evenodd" d="M39.4977 1.34784L54.8624 16.7125C55.1504 17.0006 55.3125 17.3906 55.3125 17.7987V68.5018C55.3125 71.8914 52.5547 74.6477 49.1668 74.6477H6.14588C2.75785 74.6477 0 71.8914 0 68.502V7.04359C0 3.65397 2.75785 0.897705 6.14574 0.897705H38.4114C38.8196 0.897705 39.2096 1.05975 39.4977 1.34784ZM50.0669 16.2623L39.9479 6.14332V13.1895C39.9479 14.8834 41.3252 16.2623 43.0207 16.2623H50.0669ZM49.1668 71.5747C50.8622 71.5747 52.2396 70.1958 52.2396 68.5018V19.3352H43.0209C39.6328 19.3352 36.875 16.5789 36.875 13.1895V3.97072H6.14588C4.4505 3.97072 3.07301 5.34964 3.07301 7.04359V68.5018C3.07301 70.1958 4.45035 71.5747 6.14588 71.5747H49.1668Z" fill="#2AA549"/>
</svg>
