<svg width="75" height="75" viewBox="0 0 75 75" fill="none" xmlns="http://www.w3.org/2000/svg">
    <g clip-path="url(#clip0)">
        <path d="M54.5929 2.932L11.8926 0.0759226C10.5006 -0.0162883 9.29334 1.03922 9.20012 2.43077L8.8661 7.42534H3.1908C1.79621 7.42534 0.661499 8.56005 0.661499 9.95463V71.4478C0.661499 72.8423 1.79621 73.9771 3.1908 73.9771H35.8752C36.1585 73.9771 36.4392 73.8613 36.6401 73.6613L41.5741 68.7491C41.6243 68.7598 41.6754 68.7683 41.728 68.7718L50.1516 69.3351C51.496 69.4239 52.7539 68.3304 52.8441 66.9803L56.9478 5.62462C57.0401 4.24753 55.9699 3.02407 54.5929 2.932ZM36.9592 70.2694V62.7393C36.9592 62.5402 37.1214 62.378 37.3205 62.378H44.8217L36.9592 70.2694ZM50.6809 66.8358C50.6456 67.054 50.5174 67.1662 50.2964 67.1721L43.6075 66.7246L48.1967 62.1558C48.401 61.9525 48.5159 61.676 48.5159 61.3877V9.95478C48.5159 8.56019 47.3812 7.42548 45.9866 7.42548H34.7142C33.3127 7.42548 33.3127 9.59345 34.7142 9.59345H45.9866C46.186 9.59345 46.348 9.75561 46.348 9.95478V60.21H37.3205C35.926 60.21 34.7913 61.3447 34.7913 62.7393V71.8091H3.1908C2.99163 71.8091 2.82947 71.6469 2.82947 71.4478V9.95478C2.82947 9.75561 2.99163 9.59345 3.1908 9.59345H28.9416C30.3432 9.59345 30.3432 7.42548 28.9416 7.42548H11.0388L11.3632 2.57559C11.3984 2.3572 11.5266 2.24519 11.7478 2.23927L54.4481 5.0952C54.6665 5.13047 54.7786 5.25867 54.7845 5.4798L50.6809 66.8358Z" fill="#2AA549"/>
        <path d="M39.3709 34.2852H9.80658C9.20793 34.2852 8.7226 34.7705 8.7226 35.3691C8.7226 35.9678 9.20793 36.4531 9.80658 36.4531H39.3709C39.9697 36.4531 40.4549 35.9678 40.4549 35.3691C40.4549 34.7705 39.9697 34.2852 39.3709 34.2852Z" fill="#2AA549"/>
        <path d="M39.3709 41.842H9.80658C9.20793 41.842 8.7226 42.3274 8.7226 42.926C8.7226 43.5247 9.20793 44.01 9.80658 44.01H39.3709C39.9697 44.01 40.4549 43.5247 40.4549 42.926C40.4549 42.3274 39.9697 41.842 39.3709 41.842Z" fill="#2AA549"/>
        <path d="M8.7226 27.8123C8.7226 28.4109 9.20793 28.8962 9.80658 28.8962H39.3709C39.9697 28.8962 40.4549 28.4109 40.4549 27.8123C40.4549 27.2136 39.9697 26.7283 39.3709 26.7283H9.80658C9.20793 26.7283 8.7226 27.2136 8.7226 27.8123Z" fill="#2AA549"/>
        <path d="M13.9305 20.2554C13.9305 20.854 14.4158 21.3394 15.0144 21.3394H34.163C34.7616 21.3394 35.2469 20.854 35.2469 20.2554C35.2469 19.6567 34.7616 19.1714 34.163 19.1714H15.0144C14.4158 19.1714 13.9305 19.6567 13.9305 20.2554Z" fill="#2AA549"/>
        <path d="M28.8097 63.4427C26.8601 63.4479 24.9105 63.4521 22.961 63.4551C22.3057 63.4562 21.6505 63.457 20.9953 63.4575C19.808 63.4583 19.008 63.22 18.7421 61.914C18.5172 60.8098 16.9551 60.9582 16.6516 61.914C15.9015 64.2752 14.6608 63.3501 13.9659 61.7618C13.2726 60.1773 13.0948 58.4039 12.792 56.7177C12.5695 55.4786 10.6955 55.8259 10.6628 57.0059C10.6197 58.5597 10.4746 60.0889 10.0802 61.5959C9.67334 63.1508 9.06356 64.6451 8.45826 66.1307C7.93058 67.4258 10.0289 67.983 10.5488 66.7071C11.0851 65.3907 11.6222 64.0671 12.022 62.7016C12.7649 64.488 14.3018 66.5085 16.4919 65.3177C16.8993 65.0962 17.2799 64.7812 17.6139 64.414C18.7528 65.7301 20.448 65.6263 22.0342 65.6244C24.2928 65.6215 26.5514 65.6166 28.81 65.6107C30.2046 65.6071 30.2072 63.4391 28.8097 63.4427Z" fill="#2AA549"/>
        <path d="M73.7845 35.6425C73.2212 35.082 72.4468 34.7945 71.6606 34.7733L70.8414 34.7773V33.2281C70.8414 32.2844 70.2809 31.2875 69.478 30.791V28.6089C69.478 24.1184 62.4868 24.1379 62.4868 28.63V30.8124C61.6689 31.318 61.1202 32.2203 61.1202 33.248V34.8353C57.5118 35.081 57.5016 40.5797 61.1243 40.7946C61.1474 45.6472 61.1462 50.4204 61.1202 55.3542C61.1131 56.7148 63.2808 56.7946 63.2882 55.3657C63.3142 50.4276 63.3154 45.6503 63.2924 40.7936L68.6705 40.7668C68.6705 40.7668 68.6636 56.7878 68.6636 64.0051C68.6636 67.5227 63.2843 67.5462 63.2843 63.9686L63.2862 61.9918C63.3707 60.5928 61.2068 60.4623 61.1221 61.8612V63.7161C61.1221 65.3059 61.6138 66.6524 62.5657 67.5995C62.6504 69.8676 63.606 72.0623 65.2206 73.6634C65.6838 74.1231 66.3251 73.9826 66.7734 73.6371C68.416 71.9917 69.3416 69.8224 69.3994 67.507C70.115 66.7943 70.8314 66.0767 70.8314 63.6197L70.8323 53.7408C72.7069 54.274 74.6615 52.8233 74.6615 50.858V37.7531C74.6615 36.9548 74.35 36.2053 73.7845 35.6425ZM63.2882 34.8148V33.2479C63.2882 32.9272 63.5083 32.6582 63.8046 32.5783L68.1441 32.5567C68.2656 32.5868 68.3776 32.6442 68.4683 32.7347C68.6006 32.8663 68.6734 33.0415 68.6734 33.2281V34.7882L63.2882 34.8148ZM65.9867 27.2991C66.6522 27.2991 67.3099 27.9515 67.3099 28.6089V30.3672L64.6546 30.3804V28.63C64.6547 27.8997 65.2519 27.3027 65.9867 27.2991ZM65.9851 71.2223C65.4812 70.508 65.1167 69.7003 64.9132 68.8511C65.2488 68.9238 65.5887 68.9617 65.9288 68.9617C66.3085 68.9617 66.688 68.9146 67.0618 68.8234C66.8632 69.6854 66.4992 70.4981 65.9851 71.2223ZM72.4935 50.858C72.4935 51.8843 70.8384 51.9651 70.8384 50.8769C70.8384 50.8769 70.8402 40.619 70.8414 39.6787C70.8421 39.0722 70.338 38.5934 69.749 38.5934L61.31 38.6353C60.2633 38.6353 60.2877 36.9976 61.3207 36.9925L71.6713 36.9412C72.1718 36.9839 72.4458 37.2546 72.4934 37.7531V50.858H72.4935Z" fill="#2AA549"/>
    </g>
    <defs>
        <clipPath id="clip0">
            <rect width="74" height="74" fill="white" transform="translate(0.661499 0.0244141)"/>
        </clipPath>
    </defs>
</svg>

