<svg width="45" height="75" viewBox="0 0 45 75" fill="none" xmlns="http://www.w3.org/2000/svg">
    <path fill-rule="evenodd" clip-rule="evenodd" d="M18.7533 45.8554C18.7533 43.9864 20.2738 42.4658 22.1429 42.4658C24.012 42.4658 25.5325 43.9864 25.5325 45.8554C25.5325 47.7243 24.0119 49.245 22.1429 49.245C20.2739 49.245 18.7533 47.7243 18.7533 45.8554ZM20.9139 45.8554C20.9139 46.533 21.4652 47.0844 22.1429 47.0844C22.8206 47.0844 23.3719 46.533 23.3719 45.8554C23.3719 45.1778 22.8205 44.6264 22.1429 44.6264C21.4653 44.6264 20.9139 45.1778 20.9139 45.8554Z" fill="#2AA549"/>
    <path fill-rule="evenodd" clip-rule="evenodd" d="M31.3802 49.245C33.2493 49.245 34.7699 47.7243 34.7699 45.8554C34.7699 43.9864 33.2492 42.4658 31.3802 42.4658C29.5113 42.4658 27.9906 43.9864 27.9906 45.8554C27.9906 47.7243 29.5111 49.245 31.3802 49.245ZM31.3802 44.6264C32.058 44.6264 32.6092 45.1778 32.6092 45.8554C32.6092 46.533 32.0578 47.0844 31.3802 47.0844C30.7027 47.0844 30.1513 46.533 30.1513 45.8554C30.1513 45.1778 30.7025 44.6264 31.3802 44.6264Z" fill="#2AA549"/>
    <path fill-rule="evenodd" clip-rule="evenodd" d="M9.51595 45.8554C9.51595 43.9864 11.0365 42.4658 12.9056 42.4658C14.7747 42.4658 16.2952 43.9864 16.2952 45.8554C16.2952 47.7243 14.7745 49.245 12.9056 49.245C11.0366 49.245 9.51595 47.7243 9.51595 45.8554ZM11.6766 45.8554C11.6766 46.533 12.2278 47.0844 12.9056 47.0844C13.5833 47.0844 14.1345 46.533 14.1345 45.8554C14.1345 45.1778 13.5831 44.6264 12.9056 44.6264C12.228 44.6264 11.6766 45.1778 11.6766 45.8554Z" fill="#2AA549"/>
    <path fill-rule="evenodd" clip-rule="evenodd" d="M22.1429 51.703C20.2738 51.703 18.7533 53.2237 18.7533 55.0927C18.7533 56.9618 20.2739 58.4824 22.1429 58.4824C24.0119 58.4824 25.5325 56.9618 25.5325 55.0927C25.5325 53.2237 24.012 51.703 22.1429 51.703ZM22.1429 56.3218C21.4652 56.3218 20.9139 55.7704 20.9139 55.0927C20.9139 54.415 21.4653 53.8637 22.1429 53.8637C22.8205 53.8637 23.3719 54.4151 23.3719 55.0927C23.3719 55.7705 22.8206 56.3218 22.1429 56.3218Z" fill="#2AA549"/>
    <path fill-rule="evenodd" clip-rule="evenodd" d="M27.9906 55.0927C27.9906 53.2237 29.5111 51.703 31.3802 51.703C33.2492 51.703 34.7699 53.2237 34.7699 55.0927C34.7699 56.9618 33.2492 58.4824 31.3802 58.4824C29.5113 58.4824 27.9906 56.9618 27.9906 55.0927ZM30.1513 55.0927C30.1513 55.7704 30.7025 56.3218 31.3802 56.3218C32.0578 56.3218 32.6092 55.7705 32.6092 55.0927C32.6092 54.4151 32.0578 53.8637 31.3802 53.8637C30.7027 53.8637 30.1513 54.415 30.1513 55.0927Z" fill="#2AA549"/>
    <path fill-rule="evenodd" clip-rule="evenodd" d="M12.9056 51.703C11.0365 51.703 9.51595 53.2237 9.51595 55.0927C9.51595 56.9618 11.0366 58.4824 12.9056 58.4824C14.7745 58.4824 16.2952 56.9618 16.2952 55.0927C16.2952 53.2237 14.7747 51.703 12.9056 51.703ZM12.9056 56.3218C12.2278 56.3218 11.6766 55.7704 11.6766 55.0927C11.6766 54.415 12.228 53.8637 12.9056 53.8637C13.5831 53.8637 14.1345 54.4151 14.1345 55.0927C14.1345 55.7705 13.5833 56.3218 12.9056 56.3218Z" fill="#2AA549"/>
    <path fill-rule="evenodd" clip-rule="evenodd" d="M18.7533 64.3301C18.7533 62.4612 20.2738 60.9405 22.1429 60.9405C24.012 60.9405 25.5325 62.4612 25.5325 64.3301C25.5325 66.1991 24.0119 67.7198 22.1429 67.7198C20.2739 67.7198 18.7533 66.1991 18.7533 64.3301ZM20.9139 64.3301C20.9139 65.0077 21.4652 65.5591 22.1429 65.5591C22.8206 65.5591 23.3719 65.0077 23.3719 64.3301C23.3719 63.6526 22.8205 63.1012 22.1429 63.1012C21.4653 63.1012 20.9139 63.6526 20.9139 64.3301Z" fill="#2AA549"/>
    <path fill-rule="evenodd" clip-rule="evenodd" d="M31.3802 60.9405C29.5111 60.9405 27.9906 62.4612 27.9906 64.3301C27.9906 66.1991 29.5113 67.7198 31.3802 67.7198C33.2492 67.7198 34.7699 66.1991 34.7699 64.3301C34.7699 62.4612 33.2492 60.9405 31.3802 60.9405ZM31.3802 65.5591C30.7025 65.5591 30.1513 65.0077 30.1513 64.3301C30.1513 63.6526 30.7027 63.1012 31.3802 63.1012C32.0578 63.1012 32.6092 63.6526 32.6092 64.3301C32.6092 65.0077 32.0578 65.5591 31.3802 65.5591Z" fill="#2AA549"/>
    <path fill-rule="evenodd" clip-rule="evenodd" d="M9.51595 64.3301C9.51595 62.4612 11.0365 60.9405 12.9056 60.9405C14.7747 60.9405 16.2952 62.4612 16.2952 64.3301C16.2952 66.1991 14.7745 67.7198 12.9056 67.7198C11.0366 67.7198 9.51595 66.1991 9.51595 64.3301ZM11.6766 64.3301C11.6766 65.0077 12.2278 65.5591 12.9056 65.5591C13.5833 65.5591 14.1345 65.0077 14.1345 64.3301C14.1345 63.6526 13.5831 63.1012 12.9056 63.1012C12.228 63.1012 11.6766 63.6526 11.6766 64.3301Z" fill="#2AA549"/>
    <path d="M28.1981 19.5927C24.4066 17.549 19.8791 17.549 16.0876 19.5927C15.5626 19.8757 14.9073 19.6794 14.624 19.1542C14.3408 18.6289 14.5371 17.9736 15.0623 17.6906C19.496 15.3011 24.7897 15.3011 29.2232 17.6906C29.7484 17.9738 29.9446 18.629 29.6615 19.1542C29.4664 19.5163 29.0942 19.7222 28.7097 19.7222C28.5367 19.7222 28.3611 19.6806 28.1981 19.5927Z" fill="#2AA549"/>
    <path d="M17.2518 21.7568C20.3145 20.1061 23.9712 20.1061 27.034 21.7568C27.5592 22.0398 27.7555 22.6951 27.4725 23.2203C27.2773 23.5824 26.9051 23.7882 26.5206 23.7882C26.3477 23.7882 26.1721 23.7466 26.009 23.6587C23.5882 22.354 20.6978 22.354 18.2771 23.6587C17.7519 23.9418 17.0965 23.7456 16.8134 23.2204C16.5302 22.6951 16.7266 22.0398 17.2518 21.7568Z" fill="#2AA549"/>
    <path d="M24.8346 25.8406C23.149 24.9333 21.1365 24.9334 19.4511 25.8406C18.9258 26.1234 18.7291 26.7786 19.012 27.3039C19.2947 27.8294 19.95 28.0259 20.4753 27.7431C21.5196 27.1811 22.7663 27.1811 23.8106 27.7431C23.9735 27.8308 24.1488 27.8723 24.3217 27.8723C24.7063 27.8723 25.0788 27.6663 25.2738 27.3038C25.5567 26.7785 25.3599 26.1234 24.8346 25.8406Z" fill="#2AA549"/>
    <path d="M30.2252 5.51626H14.0596C13.463 5.51626 12.9793 5.99996 12.9793 6.59659C12.9793 7.19321 13.463 7.67691 14.0596 7.67691H30.2252C30.8218 7.67691 31.3055 7.19321 31.3055 6.59659C31.3055 5.99996 30.8218 5.51626 30.2252 5.51626Z" fill="#2AA549"/>
    <path fill-rule="evenodd" clip-rule="evenodd" d="M5.97751 0.897705H38.3083C41.4507 0.897705 44.0074 3.45433 44.0072 6.59663V68.9487C44.0072 72.091 41.4506 74.6477 38.3081 74.6477H5.97751C2.83507 74.6477 0.278442 72.0912 0.278442 68.9487V6.59663C0.278442 3.45433 2.83507 0.897705 5.97751 0.897705ZM21.0626 37.8471V33.0797H15.1405V37.8471H21.0626ZM29.1453 37.8471V33.0797H23.2232V37.8471H29.1453ZM37.228 37.8471V33.0797H31.3059V37.8471H37.228ZM7.05784 37.8471H12.9799V33.0797H7.05784V37.8471ZM37.2278 40.0077H7.05784V72.4872H37.2278V40.0077ZM7.05784 30.919H37.2278V12.2957H7.05784V30.919ZM39.3886 72.3179C40.8129 71.8601 41.8467 70.5233 41.8467 68.9489L41.8466 6.59663C41.8466 4.64571 40.2592 3.05835 38.3081 3.05835H5.97751C4.02645 3.05835 2.43909 4.64556 2.43909 6.59663V68.9489C2.43909 70.5231 3.47289 71.8601 4.89719 72.3179V8.90607C4.89719 7.03711 6.41771 5.51645 8.28681 5.51645H9.44117C10.0378 5.51645 10.5215 6.00015 10.5215 6.59677C10.5215 7.1934 10.0378 7.6771 9.44117 7.6771H8.28681C7.60923 7.6771 7.05784 8.22835 7.05784 8.90607V10.135H37.228V8.90607C37.228 8.22849 36.6767 7.6771 35.999 7.6771H34.8446C34.248 7.6771 33.7643 7.1934 33.7643 6.59677C33.7643 6.00015 34.248 5.51645 34.8446 5.51645H35.999C37.868 5.51645 39.3886 7.03697 39.3886 8.90607V72.3179Z" fill="#2AA549"/>
</svg>
