<svg width="75" height="75" viewBox="0 0 75 75" fill="none" xmlns="http://www.w3.org/2000/svg">
    <path d="M70.8926 62.1101C63.5565 58.2198 57.9293 56.0384 52.9201 55.2021L53.4385 54.4893C53.6844 54.2434 53.8072 53.8747 53.6844 53.5059L52.5325 48.8984C52.9499 48.3083 53.3437 47.6981 53.7126 47.0708C58.2932 45.5118 60.6095 42.8766 60.9987 38.9966C63.0107 38.8917 64.7467 37.096 64.7467 35.0684V25.8496C64.7467 23.8313 63.1411 22.0427 61.0376 21.923C60.767 14.8223 57.6361 0.897461 37.7051 0.897461C17.7737 0.897461 14.643 14.8228 14.3724 21.9235C12.377 22.0413 10.6634 23.7166 10.6634 25.8495V35.0683C10.6634 37.1579 12.5072 39.0016 14.7197 39.0016H16.5634C17.241 39.0016 17.8922 38.8069 18.4595 38.4736C19.1565 42.1733 20.6947 45.8123 22.8778 48.8983L21.7259 53.5058C21.7259 53.7517 21.7259 54.1204 21.9718 54.4892L22.4902 55.2019C17.481 56.0384 11.8538 58.2196 4.51767 62.1099C2.18215 63.2163 0.830017 65.5517 0.830017 68.133V73.4183C0.830017 74.156 1.32164 74.6476 2.05914 74.6476H31.5592H32.0508H43.3592H43.8508H73.3509C74.0884 74.6476 74.58 74.156 74.58 73.4185V68.1331C74.5801 65.6747 73.1051 63.3392 70.8926 62.1101ZM37.7119 59.2985L40.6551 66.0435H34.714L37.7119 59.2985ZM33.821 68.5017H41.5845L42.304 72.1892H33.0833L33.821 68.5017ZM50.6114 51.2934L51.103 53.5059L49.8473 55.23C49.7673 55.2955 49.6931 55.3749 49.628 55.4726L44.5152 62.5519L42.8929 64.7793L39.5792 57.3235C43.6208 56.8306 47.2199 54.7708 50.1055 51.8193C50.276 51.6474 50.4448 51.4726 50.6114 51.2934ZM55.411 43.6472C56.1043 41.9603 56.6269 40.2069 56.9573 38.4394C57.4253 38.7229 57.9581 38.9123 58.5326 38.9766C58.3195 40.714 57.5476 42.3544 55.411 43.6472ZM62.1655 25.7266V34.9454C62.1655 35.6829 61.5509 36.4204 60.6905 36.4204H58.8467C58.1092 36.4204 57.3717 35.8058 57.3717 34.9454V34.085V25.7266C57.3717 24.9891 57.9864 24.2516 58.8467 24.2516H60.6905C61.428 24.2516 62.1655 24.8663 62.1655 25.7266ZM37.7051 3.35585C45.2813 3.35585 58.0322 5.82907 58.5804 21.9363C58.0653 21.9891 57.572 22.1457 57.1257 22.3863C55.63 13.0262 47.4693 5.81409 37.7051 5.81409C27.9421 5.81409 19.7824 13.0242 18.285 22.3822C17.8454 22.1448 17.3545 21.988 16.8296 21.9358C17.3781 5.82907 30.129 3.35585 37.7051 3.35585ZM17.9154 34.9454C17.9154 35.6829 17.3008 36.4204 16.4404 36.4204H14.5967C13.8592 36.4204 13.1217 35.8058 13.1217 34.9454V25.7266C13.1217 24.9891 13.7363 24.2516 14.5967 24.2516H16.4404C17.1779 24.2516 17.9154 24.8663 17.9154 25.7266V34.9454ZM20.4967 25.4809C20.4967 16.0162 28.2404 8.27247 37.7051 8.27247C47.1697 8.27247 54.9135 16.0162 54.9135 25.4809V34.085C54.9135 38.1516 53.8548 41.8747 52.1384 45.016C49.2045 45.867 44.9839 46.3767 38.9343 46.3767C38.1968 46.3767 37.7052 46.8683 37.7052 47.6058C37.7052 48.3433 38.1968 48.8349 38.9343 48.8349C43.363 48.8349 47.0667 48.563 50.0999 47.9944C50.0245 48.0697 49.9492 48.1451 49.8739 48.2204C49.2555 49.0449 48.6028 49.7967 47.9209 50.4746C45.0267 53.1709 41.5747 54.8042 38.2481 54.966C38.0807 54.8941 37.8931 54.8579 37.7051 54.8579C37.5161 54.8579 37.3458 54.8949 37.1932 54.9675C35.157 54.8742 33.0731 54.2287 31.0978 53.1248C29.0966 51.975 27.2141 50.3175 25.5363 48.2204C25.4134 48.0975 25.2904 47.9745 25.1676 47.8517L25.0958 47.8278C22.3354 44.2074 20.4967 39.4446 20.4967 34.085V25.4809ZM35.8308 57.3235L32.5171 64.7793L30.8949 62.5519L25.782 55.4726C25.7429 55.4334 25.6997 55.3946 25.6547 55.3565L24.307 53.5059L24.7987 51.2934C24.965 51.4726 25.1339 51.6472 25.3041 51.819C28.1899 54.7705 31.7892 56.8305 35.8308 57.3235ZM3.2884 68.133C3.2884 66.5351 4.14877 65.0601 5.62378 64.3226C13.4587 60.1603 19.0987 58.0712 24.123 57.4473L31.4579 67.5329L30.5267 72.1892H3.2884V68.133ZM72.1218 72.1892H44.8835L43.9522 67.5329L51.3667 57.3379C56.3732 58.0934 62.1145 60.1809 69.7865 64.1996C71.2615 65.0599 72.1219 66.5349 72.1219 68.133V72.1892H72.1218Z" fill="#2AA549"/>
</svg>
