<svg width="71" height="75" viewBox="0 0 71 75" fill="none" xmlns="http://www.w3.org/2000/svg">
    <g clip-path="url(#clip0)">
        <path d="M70.2224 44.4243C70.2224 42.5593 69.5253 40.8214 68.3237 39.5397C69.6858 37.954 70.3799 35.8282 70.1903 33.6157C69.849 29.6714 66.5094 26.5806 62.5837 26.5806H44.5674C45.4599 23.6977 46.889 18.413 46.889 14.1678C46.889 7.43685 41.5137 1.75488 38.139 1.75488C35.1115 1.75488 32.9444 3.57027 32.854 3.64475C32.5069 3.93961 32.3057 4.38647 32.3057 4.85807V15.3811L23.9028 34.7422L23.5557 34.9314V34.3387C23.5557 33.4822 22.9023 32.787 22.0973 32.787H7.51403C3.49204 32.7871 0.222412 36.2659 0.222412 40.5452V65.3711C0.222412 69.6505 3.49204 73.1291 7.51403 73.1291H16.264C19.4169 73.1291 22.1119 70.9879 23.1269 67.9995C25.5537 69.3277 28.8203 70.0259 30.8474 70.0259H57.6195C60.7958 70.0259 63.5754 67.7481 64.2287 64.6077C64.564 62.9878 64.3687 61.3586 63.7037 59.9435C65.8562 58.7922 67.3058 56.4245 67.3058 53.734C67.3058 52.6354 67.0695 51.5834 66.6233 50.6338C68.7758 49.4794 70.2224 47.1148 70.2224 44.4243ZM64.0712 48.2536C63.5083 48.325 63.0328 48.7314 62.852 49.3056C62.6742 49.8797 62.8229 50.5096 63.237 50.9255C63.9779 51.6672 64.3892 52.6664 64.3892 53.734C64.3892 55.692 62.9979 57.3368 61.1575 57.5633C60.5947 57.6347 60.1192 58.0411 59.9384 58.6153C59.7606 59.1894 59.9093 59.8193 60.3234 60.2352C61.2831 61.1971 61.6681 62.547 61.3793 63.9374C61.0206 65.669 59.4397 66.9227 57.6197 66.9227H30.8474C28.479 66.9227 24.5065 65.7404 23.1299 64.2725C22.7128 63.8319 22.0828 63.7016 21.5403 63.9374C20.9949 64.1764 20.639 64.7443 20.639 65.3711C20.639 67.9375 18.6762 70.0259 16.264 70.0259H7.51403C5.1019 70.0259 3.13903 67.9375 3.13903 65.3711V40.5452C3.13903 37.9788 5.1019 35.8903 7.51403 35.8903H20.639V37.442C20.639 37.9789 20.9015 38.4784 21.3332 38.764C21.759 39.037 22.2957 39.0649 22.7507 38.8291L25.6673 37.2775C25.9619 37.1223 26.1982 36.8616 26.3382 36.542L35.0882 16.371C35.1757 16.1661 35.2223 15.9427 35.2223 15.7193V5.69899C35.829 5.34217 36.882 4.85807 38.139 4.85807C39.7374 4.85807 43.9724 9.08467 43.9724 14.1678C43.9724 19.6295 41.1783 27.5023 41.152 27.58C40.9829 28.0548 41.0412 28.5917 41.3124 29.0137C41.5865 29.4326 42.0358 29.684 42.514 29.684H62.5837C65.0162 29.684 67.0812 31.5366 67.2853 33.9013C67.4399 35.6701 66.6407 37.3521 65.2087 38.2924C64.7624 38.584 64.497 39.1116 64.5174 39.6733C64.5378 40.2349 64.8412 40.7376 65.3078 40.9952C66.5415 41.6625 67.3056 42.9782 67.3056 44.4243C67.3058 46.3824 65.9145 48.0271 64.0712 48.2536Z" fill="#2AA549"/>
        <path d="M22.0974 35.8901C21.2924 35.8901 20.639 36.5853 20.639 37.4418V65.3709C20.639 66.2274 21.2924 66.9226 22.0974 66.9226C22.9024 66.9226 23.5558 66.2274 23.5558 65.3709V37.4418C23.5558 36.5853 22.9024 35.8901 22.0974 35.8901Z" fill="#2AA549"/>
    </g>
    <defs>
        <clipPath id="clip0">
            <rect width="70" height="74.4775" fill="white" transform="translate(0.222412 0.203125)"/>
        </clipPath>
    </defs>
</svg>
