<svg width="74" height="74" viewBox="0 0 74 74" fill="none" xmlns="http://www.w3.org/2000/svg">
    <path d="M68.0196 37.0438C68.0196 35.5197 69.2546 34.2846 70.7786 34.2846C72.3026 34.2846 73.5377 35.5199 73.5377 37.0438C73.5377 57.2265 57.1166 73.6477 36.9339 73.6477C16.7503 73.6477 0.330017 57.2265 0.330017 37.0438C0.330017 16.8602 16.7503 0.439941 36.9339 0.439941C38.4578 0.439941 39.693 1.67504 39.693 3.1991C39.693 4.72302 38.4578 5.95812 36.9339 5.95812C19.7935 5.95812 5.84819 19.9035 5.84819 37.0438C5.84819 54.1851 19.7935 68.1295 36.9339 68.1295C54.0752 68.1295 68.0196 54.1851 68.0196 37.0438Z" fill="#2AA549"/>
    <path d="M67.5431 10.4435C68.6201 9.36742 70.3675 9.36928 71.4444 10.4481C72.5205 11.5269 72.5187 13.2743 71.439 14.3503L36.3066 49.3906C35.7897 49.9056 35.0881 50.1953 34.3587 50.1953C34.3394 50.1953 34.32 50.1953 34.2998 50.1945C33.5493 50.1789 32.8375 49.8579 32.3289 49.3051L18.4415 34.223C17.4096 33.1019 17.4814 31.3563 18.6025 30.3244C19.7245 29.2926 21.4692 29.3653 22.5011 30.4854L34.4434 43.4559L67.5431 10.4435Z" fill="#2AA549"/>
</svg>
