<svg width="77" height="78" viewBox="0 0 77 78" fill="none" xmlns="http://www.w3.org/2000/svg">
    <g clip-path="url(#clip0)">
        <path d="M30.4792 48.8292H11.2292C10.3437 48.8292 9.625 48.1105 9.625 47.225C9.625 46.3395 10.3437 45.6208 11.2292 45.6208H30.4792C31.3647 45.6208 32.0833 46.3395 32.0833 47.225C32.0833 48.1105 31.3647 48.8292 30.4792 48.8292Z" fill="#2AA549"/>
        <path d="M27.2708 58.4542H11.2292C10.3437 58.4542 9.625 57.7355 9.625 56.85C9.625 55.9645 10.3437 55.2458 11.2292 55.2458H27.2708C28.1563 55.2458 28.875 55.9645 28.875 56.85C28.875 57.7355 28.1563 58.4542 27.2708 58.4542Z" fill="#2AA549"/>
        <path d="M27.2709 23.1624C23.7321 23.1624 20.8542 20.2846 20.8542 16.7458C20.8542 13.207 23.7321 10.3291 27.2709 10.3291C30.8096 10.3291 33.6875 13.207 33.6875 16.7458C33.6875 20.2846 30.8096 23.1624 27.2709 23.1624ZM27.2709 13.5374C25.5031 13.5374 24.0625 14.978 24.0625 16.7458C24.0625 18.5136 25.5031 19.9541 27.2709 19.9541C29.0386 19.9541 30.4792 18.5136 30.4792 16.7458C30.4792 14.978 29.0386 13.5374 27.2709 13.5374Z" fill="#2AA549"/>
        <path d="M38.5 39.2042C37.6145 39.2042 36.8958 38.4855 36.8958 37.6V34.3917C36.8958 31.7384 34.7366 29.5792 32.0833 29.5792H22.4583C19.805 29.5792 17.6458 31.7384 17.6458 34.3917V37.6C17.6458 38.4855 16.9272 39.2042 16.0417 39.2042C15.1562 39.2042 14.4375 38.4855 14.4375 37.6V34.3917C14.4375 29.9706 18.0372 26.3708 22.4583 26.3708H32.0833C36.5044 26.3708 40.1042 29.9706 40.1042 34.3917V37.6C40.1042 38.4855 39.3855 39.2042 38.5 39.2042Z" fill="#2AA549"/>
        <path d="M30.4792 68.0791H8.02083C3.59975 68.0791 0 64.4794 0 60.0583V8.72493C0 4.30385 3.59975 0.704102 8.02083 0.704102H46.5208C50.9419 0.704102 54.5417 4.30385 54.5417 8.72493V28.1674C54.5417 29.0529 53.823 29.7716 52.9375 29.7716C52.052 29.7716 51.3333 29.0529 51.3333 28.1674V8.72493C51.3333 6.07164 49.1741 3.91243 46.5208 3.91243H8.02083C5.36754 3.91243 3.20833 6.07164 3.20833 8.72493V60.0583C3.20833 62.7116 5.36754 64.8708 8.02083 64.8708H30.4792C31.3647 64.8708 32.0833 65.5894 32.0833 66.4749C32.0833 67.3604 31.3647 68.0791 30.4792 68.0791Z" fill="#2AA549"/>
        <path d="M56.1459 77.7042C44.6472 77.7042 35.2917 68.3487 35.2917 56.85C35.2917 45.3513 44.6472 35.9958 56.1459 35.9958C67.6445 35.9958 77 45.3513 77 56.85C77 68.3487 67.6445 77.7042 56.1459 77.7042ZM56.1459 39.2042C46.415 39.2042 38.5 47.1191 38.5 56.85C38.5 66.5809 46.415 74.4958 56.1459 74.4958C65.8767 74.4958 73.7917 66.5809 73.7917 56.85C73.7917 47.1191 65.8767 39.2042 56.1459 39.2042Z" fill="#2AA549"/>
        <path d="M52.9375 64.8708C52.514 64.8708 52.1033 64.7007 51.8018 64.4024L45.3851 57.9857C44.7595 57.3601 44.7595 56.343 45.3851 55.7174C46.0107 55.0918 47.0277 55.0918 47.6534 55.7174L52.8573 60.9213L62.9571 49.3777C63.541 48.7072 64.5549 48.6398 65.2222 49.2269C65.8896 49.8108 65.9569 50.8247 65.373 51.492L54.1438 64.3254C53.8519 64.659 53.4316 64.8579 52.9888 64.8708C52.9728 64.8708 52.9535 64.8708 52.9375 64.8708Z" fill="#2AA549"/>
    </g>
    <defs>
        <clipPath id="clip0">
            <rect width="77" height="77" fill="white" transform="translate(0 0.704102)"/>
        </clipPath>
    </defs>
</svg>
