<svg width="75" height="76" viewBox="0 0 75 76" fill="none" xmlns="http://www.w3.org/2000/svg">
    <path d="M69.7266 14.0869H58.5938V3.54004C58.5938 3.22924 58.4703 2.93117 58.2505 2.7114C58.0307 2.49163 57.7327 2.36816 57.4219 2.36816H17.5781C17.2673 2.36816 16.9693 2.49163 16.7495 2.7114C16.5297 2.93117 16.4062 3.22924 16.4062 3.54004V14.0869H5.27344C4.186 14.0881 3.14345 14.5206 2.37452 15.2896C1.60559 16.0585 1.17308 17.101 1.17188 18.1885V59.2041C1.17308 60.2915 1.60559 61.3341 2.37452 62.103C3.14345 62.8719 4.186 63.3045 5.27344 63.3057H29.0391L28.3359 66.8213H24.6094C24.2986 66.8213 24.0005 66.9448 23.7807 67.1645C23.561 67.3843 23.4375 67.6824 23.4375 67.9932V70.3369H17.5781C17.2673 70.3369 16.9693 70.4604 16.7495 70.6801C16.5297 70.8999 16.4062 71.198 16.4062 71.5088C16.4062 71.8196 16.5297 72.1177 16.7495 72.3374C16.9693 72.5572 17.2673 72.6807 17.5781 72.6807H55.0781C55.3889 72.6807 55.687 72.5572 55.9068 72.3374C56.1265 72.1177 56.25 71.8196 56.25 71.5088C56.25 71.198 56.1265 70.8999 55.9068 70.6801C55.687 70.4604 55.3889 70.3369 55.0781 70.3369H51.5625V67.9932C51.5625 67.6824 51.439 67.3843 51.2193 67.1645C50.9995 66.9448 50.7014 66.8213 50.3906 66.8213H46.6406L45.8496 63.3057H69.7266C70.814 63.3045 71.8565 62.8719 72.6255 62.103C73.3944 61.3341 73.8269 60.2915 73.8281 59.2041V18.1885C73.8269 17.101 73.3944 16.0585 72.6255 15.2896C71.8565 14.5206 70.814 14.0881 69.7266 14.0869ZM18.75 4.71191H56.25V55.1025H18.75V4.71191ZM3.51562 18.1885C3.51601 17.7224 3.70133 17.2755 4.0309 16.9459C4.36047 16.6164 4.80736 16.4311 5.27344 16.4307H16.4062V55.1025H3.51562V18.1885ZM49.2188 69.165V70.3369H25.7812V69.165H49.2188ZM30.7266 66.8213L31.4297 63.3057H43.4473L44.2383 66.8213H30.7266ZM71.4844 59.2041C71.484 59.6702 71.2987 60.1171 70.9691 60.4466C70.6395 60.7762 70.1926 60.9615 69.7266 60.9619H5.27344C4.80736 60.9615 4.36047 60.7762 4.0309 60.4466C3.70133 60.1171 3.51601 59.6702 3.51562 59.2041V57.4463H71.4844V59.2041ZM71.4844 55.1025H58.5938V16.4307H69.7266C70.1926 16.4311 70.6395 16.6164 70.9691 16.9459C71.2987 17.2755 71.484 17.7224 71.4844 18.1885V55.1025Z" fill="#2AA549"/>
    <path d="M56.8051 70.3369H50.699C50.3882 70.3369 50.0902 70.4604 49.8704 70.6801C49.6506 70.8999 49.5272 71.198 49.5272 71.5088C49.5272 71.8196 49.6506 72.1177 49.8704 72.3374C50.0902 72.5572 50.3882 72.6807 50.699 72.6807H56.8051C57.1159 72.6807 57.414 72.5572 57.6338 72.3374C57.8535 72.1177 57.977 71.8196 57.977 71.5088C57.977 71.198 57.8535 70.8999 57.6338 70.6801C57.414 70.4604 57.1159 70.3369 56.8051 70.3369Z" fill="#2AA549"/>
    <path d="M30.9203 26.8873H42.628C43.1004 26.8868 43.5535 26.6989 43.8876 26.3649C44.2218 26.0308 44.4098 25.5779 44.4105 25.1054V21.1473C44.4105 20.8229 44.2816 20.5117 44.0522 20.2823C43.8228 20.0529 43.5116 19.924 43.1872 19.924C42.8628 19.924 42.5516 20.0529 42.3222 20.2823C42.0928 20.5117 41.9639 20.8229 41.9639 21.1473V24.4408H31.5843V14.0776H36.774C37.0984 14.0776 37.4096 13.9488 37.639 13.7194C37.8684 13.4899 37.9973 13.1788 37.9973 12.8544C37.9973 12.5299 37.8684 12.2188 37.639 11.9894C37.4096 11.76 37.0984 11.6311 36.774 11.6311H30.9203C30.4477 11.6315 29.9947 11.8194 29.6605 12.1534C29.3264 12.4875 29.1384 12.9405 29.1378 13.413V25.1054C29.1384 25.5779 29.3264 26.0308 29.6606 26.3649C29.9948 26.6989 30.4478 26.8868 30.9203 26.8873Z" fill="#2AA549"/>
    <path d="M45.4211 10.9446C45.2976 10.8419 45.1551 10.7644 45.0017 10.7168C44.8483 10.6691 44.687 10.6521 44.527 10.6667C44.3671 10.6814 44.2115 10.7274 44.0694 10.8022C43.9272 10.8769 43.8011 10.9789 43.6983 11.1024L37.8629 18.1144L35.9905 16.5994C35.8659 16.4961 35.722 16.4186 35.5671 16.3714C35.4123 16.3241 35.2497 16.3081 35.0886 16.3242C34.9275 16.3403 34.7712 16.3882 34.6288 16.4651C34.4864 16.542 34.3607 16.6464 34.2589 16.7723C34.1571 16.8982 34.0813 17.043 34.036 17.1984C33.9906 17.3538 33.9765 17.5166 33.9945 17.6775C34.0125 17.8383 34.0622 17.994 34.1408 18.1355C34.2195 18.277 34.3254 18.4015 34.4525 18.5018L36.7033 20.3228C37.0731 20.627 37.5425 20.7837 38.0209 20.7625C38.4993 20.7413 38.953 20.5439 39.2946 20.2082L39.3437 20.1611L45.5791 12.6678C45.6819 12.5443 45.7594 12.4017 45.8071 12.2483C45.8548 12.0948 45.8718 11.9335 45.8571 11.7735C45.8424 11.6135 45.7964 11.4579 45.7216 11.3157C45.6468 11.1735 45.5447 11.0474 45.4211 10.9446Z" fill="#2AA549"/>
    <path d="M42.1875 39.1279C42.4983 39.1279 42.7964 39.0045 43.0161 38.7847C43.2359 38.5649 43.3594 38.2669 43.3594 37.9561C43.3594 37.6453 43.2359 37.3472 43.0161 37.1274C42.7964 36.9076 42.4983 36.7842 42.1875 36.7842H32.8125C32.5017 36.7842 32.2036 36.9076 31.9839 37.1274C31.7641 37.3472 31.6406 37.6453 31.6406 37.9561C31.6406 38.2669 31.7641 38.5649 31.9839 38.7847C32.2036 39.0045 32.5017 39.1279 32.8125 39.1279H42.1875Z" fill="#2AA549"/>
    <path d="M48.0469 42.6436C48.0469 42.3328 47.9234 42.0347 47.7036 41.8149C47.4839 41.5951 47.1858 41.4717 46.875 41.4717H28.125C27.8142 41.4717 27.5161 41.5951 27.2964 41.8149C27.0766 42.0347 26.9531 42.3328 26.9531 42.6436C26.9531 42.9544 27.0766 43.2524 27.2964 43.4722C27.5161 43.692 27.8142 43.8154 28.125 43.8154H46.875C47.1858 43.8154 47.4839 43.692 47.7036 43.4722C47.9234 43.2524 48.0469 42.9544 48.0469 42.6436Z" fill="#2AA549"/>
    <path d="M33.9844 46.1592C33.6736 46.1592 33.3755 46.2826 33.1557 46.5024C32.936 46.7222 32.8125 47.0203 32.8125 47.3311C32.8125 47.6419 32.936 47.9399 33.1557 48.1597C33.3755 48.3795 33.6736 48.5029 33.9844 48.5029H41.0156C41.3264 48.5029 41.6245 48.3795 41.8443 48.1597C42.064 47.9399 42.1875 47.6419 42.1875 47.3311C42.1875 47.0203 42.064 46.7222 41.8443 46.5024C41.6245 46.2826 41.3264 46.1592 41.0156 46.1592H33.9844Z" fill="#2AA549"/>
</svg>
