<svg width="85" height="85" viewBox="0 0 85 85" fill="none" xmlns="http://www.w3.org/2000/svg">
    <path d="M81.1362 42.8565V30.9099C81.1362 26.8589 77.994 23.5645 74.024 23.245L62.9295 3.86676C61.9014 2.07455 60.2412 0.79359 58.2546 0.261685C56.2775 -0.266598 54.21 0.0108545 52.4404 1.0408L14.4078 23.1827H7.72815C3.46657 23.1827 0.000946045 26.6481 0.000946045 30.9099V77.2728C0.000946045 81.5344 3.46639 85 7.72815 85H73.409C77.6705 85 81.1362 81.5346 81.1362 77.2728V65.3262C83.3799 64.5261 84.9997 62.4019 84.9997 59.8867V48.296C84.9997 45.7808 83.3799 43.6566 81.1362 42.8565ZM69.5346 23.1827H52.6971L65.3253 15.8306L69.5346 23.1827ZM63.4058 12.4778L45.0184 23.1827H37.3915L61.4988 9.14706L63.4058 12.4778ZM54.3853 4.37983C55.2588 3.86857 56.2793 3.73274 57.2548 3.99317C58.2414 4.25722 59.064 4.89489 59.5753 5.7872L59.5792 5.79426L29.7132 23.1827H22.0867L54.3853 4.37983ZM77.2725 77.2728C77.2725 79.4026 75.5388 81.1363 73.409 81.1363H7.72815C5.59836 81.1363 3.86464 79.4026 3.86464 77.2728V30.9099C3.86464 28.7801 5.59836 27.0464 7.72815 27.0464H73.409C75.5388 27.0464 77.2725 28.7801 77.2725 30.9099V42.5006H65.6818C59.2902 42.5006 54.091 47.6998 54.091 54.0913C54.091 60.4829 59.2902 65.6821 65.6818 65.6821H77.2725V77.2728ZM81.1362 59.8867C81.1362 60.9525 80.2703 61.8186 79.2043 61.8186H65.6818C61.4202 61.8186 57.9545 58.3531 57.9545 54.0913C57.9545 49.8298 61.42 46.3641 65.6818 46.3641H79.2043C80.2701 46.3641 81.1362 47.23 81.1362 48.296V59.8867Z" fill="#2AA549"/>
    <path d="M65.6814 50.228C63.5516 50.228 61.8178 51.9617 61.8178 54.0915C61.8178 56.2213 63.5516 57.9551 65.6814 57.9551C67.8111 57.9551 69.5449 56.2213 69.5449 54.0915C69.545 51.9617 67.8113 50.228 65.6814 50.228Z" fill="#2AA549"/>
</svg>
