<svg width="30" height="31" viewBox="0 0 30 31" fill="none" xmlns="http://www.w3.org/2000/svg">
    <g clip-path="url(#clip0)">
        <path d="M26.6027 11.568H25.8824V8.09221C25.8824 8.07037 25.8789 8.04869 25.876 8.02658C25.8749 7.88872 25.8307 7.7531 25.7364 7.64575L19.9523 1.03836C19.9506 1.03667 19.9489 1.03591 19.9477 1.03422C19.9132 0.995709 19.8731 0.963683 19.8306 0.93596C19.8179 0.927518 19.8052 0.920328 19.7921 0.912975C19.7553 0.89304 19.7162 0.87621 19.676 0.864173C19.6651 0.861287 19.6553 0.85682 19.6444 0.853934C19.6008 0.84364 19.5553 0.837158 19.5094 0.837158H5.29415C4.64502 0.837158 4.11768 1.3651 4.11768 2.01368V11.5677H3.39731C2.46915 11.5677 1.71588 12.3204 1.71588 13.2493V21.9935C1.71588 22.9215 2.46915 23.6749 3.39731 23.6749H4.11768V29.6606C4.11768 30.3092 4.64502 30.8372 5.29415 30.8372H24.7059C25.3544 30.8372 25.8824 30.3092 25.8824 29.6606V23.6749H26.6028C27.5317 23.6749 28.2842 22.9218 28.2842 21.9935V13.2496C28.2841 12.3204 27.5315 11.568 26.6027 11.568ZM24.7059 29.3422H5.29415V23.6749H24.7059V29.3422ZM8.92579 15.1845V13.6169H14.6812V14.821L11.3205 21.7683H9.30198L12.6631 15.2091V15.1844H8.92579V15.1845ZM15.9088 15.0466V13.5013H21.9066V14.5807L18.0555 20.1737V20.2225H21.968V21.7683H15.5411V20.763L19.4784 15.096V15.0466H15.9088ZM24.7059 11.568H5.29415V2.0139H18.9212V8.03295C18.9212 8.35795 19.1849 8.62118 19.5094 8.62118H24.7059V11.568Z" fill="#0E0E0E"/>
    </g>
    <defs>
        <clipPath id="clip0">
            <rect width="30" height="30" fill="white" transform="translate(0 0.837158)"/>
        </clipPath>
    </defs>
</svg>
